<svg width="24" height="21" viewBox="0 0 24 21" fill="none" xmlns="http://www.w3.org/2000/svg">
<path fill-rule="evenodd" clip-rule="evenodd" d="M12.9402 0.5C13.5154 0.499819 14.0695 0.715794 14.4913 1.10463C14.9132 1.49347 15.1716 2.02642 15.2147 2.59667L15.2204 2.76667V18.6333H16.3605V7.86667C16.3605 7.73404 16.4072 7.60559 16.4927 7.50371C16.5781 7.40182 16.6967 7.33294 16.828 7.30907L16.9306 7.3H18.6408C19.2161 7.29982 19.7702 7.51579 20.192 7.90463C20.6138 8.29347 20.8722 8.82642 20.9153 9.39667L20.921 9.56667V18.6333H22.0612C22.3518 18.6337 22.6313 18.7443 22.8426 18.9426C23.0539 19.1409 23.181 19.4119 23.1981 19.7002C23.2151 19.9886 23.1207 20.2726 22.9342 20.4941C22.7477 20.7156 22.4831 20.8579 22.1946 20.8921L22.0612 20.9H1.53889C1.24829 20.8997 0.968788 20.7891 0.757481 20.5908C0.546175 20.3925 0.419016 20.1215 0.401985 19.8331C0.384955 19.5447 0.479339 19.2608 0.665853 19.0393C0.852366 18.8177 1.11693 18.6754 1.40549 18.6413L1.53889 18.6333H2.67901V2.76667C2.67883 2.19481 2.8961 1.64402 3.28727 1.22471C3.67843 0.8054 4.21459 0.548556 4.78825 0.505667L4.95927 0.5H12.9402ZM10.6599 14.1H7.23952V16.3667H10.6599V14.1ZM10.6599 9.56667H7.23952V11.8333H10.6599V9.56667ZM10.6599 5.03333H7.23952V7.3H10.6599V5.03333Z" fill="#7A5AF8"/>
</svg>
