<svg width="23" height="26" viewBox="0 0 23 26" fill="none" xmlns="http://www.w3.org/2000/svg">
<path d="M5.95494 3.81106C5.95494 5.06919 4.92418 6.08956 3.65288 6.08956C2.38129 6.08956 1.35053 5.06948 1.35053 3.81106C1.35053 2.55323 2.38129 1.53286 3.65288 1.53286C4.92447 1.53315 5.95494 2.55323 5.95494 3.81106ZM18.6814 24.1369C18.8994 24.6223 20.2078 24.5506 20.5712 24.1369C20.9341 23.723 22.9334 10.0566 22.9982 8.69334C23.0628 7.33006 21.3311 6.93052 21.3311 6.93052C18.5725 6.71154 17.3984 7.02181 17.3984 7.02181C17.3984 7.02181 15.6285 7.35895 15.799 8.69305C15.9695 10.0272 18.4207 23.558 18.6814 24.1369ZM21.5912 3.81106C21.5912 5.06919 20.5607 6.08956 19.2891 6.08956C18.0175 6.08956 16.9868 5.06948 16.9868 3.81106C16.9868 2.55323 18.0173 1.53286 19.2891 1.53286C20.5607 1.53315 21.5912 2.55323 21.5912 3.81106ZM12.3368 0.764408C12.3368 0.342337 11.9912 0 11.5641 0C11.1373 0 10.7914 0.342337 10.7914 0.764408V25.2353C10.7914 25.6577 11.1373 26 11.5641 26C11.9909 26 12.3368 25.6574 12.3368 25.2353V0.764408ZM6.75129 6.71154C6.75129 6.71154 4.88594 6.8479 2.59789 7.92547C0.583663 8.87505 0.104336 10.6783 0.00858663 12.2921C-0.0649765 13.5274 0.340788 15.0383 0.970162 16.9369C0.970162 16.9369 0.748305 13.5652 4.87018 11.4052C7.78643 9.87664 6.91447 7.79084 6.75129 6.71154ZM6.80559 11.1085C6.80559 11.1085 5.3063 11.9986 3.67419 13.4439C2.33896 14.6263 2.25547 15.1426 1.72798 16.5235C1.37826 17.4381 0.964324 18.9115 2.82209 22.3146C3.28682 23.1657 3.54546 23.4785 3.75301 23.8668C3.99822 24.3253 4.95221 23.7859 4.84332 23.4892C4.78786 23.3393 4.50586 22.4498 4.48864 22.3562C4.35261 21.6279 3.262 18.2294 4.6273 16.9698C7.14801 14.6445 6.91973 13.7316 6.80559 11.1085Z" fill="#A449EB"/>
</svg>
