<svg width="23" height="19" viewBox="0 0 23 19" fill="none" xmlns="http://www.w3.org/2000/svg">
<path d="M5.40117 2.04696L4.72363 2.7245C3.83257 3.61332 3.12589 4.66943 2.64419 5.83217C2.16249 6.9949 1.91525 8.24135 1.91667 9.49992C1.91499 10.7588 2.16211 12.0056 2.64382 13.1687C3.12553 14.3318 3.83234 15.3882 4.72363 16.2773L5.40117 16.9548L4.04609 18.3099L3.36855 17.6323C2.29938 16.5655 1.45144 15.2979 0.873373 13.9025C0.295308 12.5071 -0.00149184 11.0113 5.63833e-06 9.50088C5.63833e-06 6.32496 1.28801 3.449 3.36855 1.36846L4.04609 0.690918L5.40117 2.04696ZM18.953 0.690918L19.6305 1.36846C20.7 2.43537 21.5481 3.70301 22.1264 5.09859C22.7046 6.49418 23.0015 7.99024 23 9.50088C23 12.6758 21.712 15.5527 19.6324 17.6323L18.9539 18.3099L17.5988 16.9548L18.2764 16.2773C19.1677 15.3882 19.8745 14.3318 20.3562 13.1687C20.8379 12.0056 21.085 10.7588 21.0833 9.49992C21.0848 8.24112 20.8374 6.99445 20.3556 5.83154C19.8737 4.66863 19.1668 3.6124 18.2754 2.72354L17.5979 2.046L18.953 0.690918ZM8.11134 4.75713L7.4338 5.43467C6.89915 5.96793 6.47515 6.6016 6.18619 7.29925C5.89723 7.9969 5.74899 8.74479 5.75 9.49992C5.75 11.0888 6.39209 12.5244 7.4338 13.5661L8.11134 14.2437L6.75626 15.5988L6.07871 14.9212C5.36596 14.2099 4.8007 13.3648 4.41537 12.4345C4.03005 11.5042 3.83226 10.5069 3.83334 9.49992C3.83334 7.38392 4.69296 5.46533 6.07871 4.07958L6.75626 3.40108L8.11134 4.75713ZM16.2428 3.40108L16.9203 4.07958C17.6332 4.79071 18.1985 5.63559 18.584 6.56575C18.9695 7.49591 19.1675 8.49304 19.1667 9.49992C19.1667 11.6178 18.307 13.5345 16.9203 14.9212L16.2428 15.5988L14.8877 14.2437L15.5653 13.5661C16.1002 13.0328 16.5244 12.399 16.8136 11.7012C17.1027 11.0034 17.251 10.2553 17.25 9.49992C17.2509 8.74472 17.1025 7.9968 16.8134 7.29914C16.5242 6.60148 16.1001 5.96785 15.5653 5.43467L14.8877 4.75713L16.2428 3.40108ZM11.5 7.58325C10.9917 7.58325 10.5042 7.78518 10.1447 8.14463C9.78527 8.50407 9.58334 8.99158 9.58334 9.49992C9.58334 10.0082 9.78527 10.4958 10.1447 10.8552C10.5042 11.2146 10.9917 11.4166 11.5 11.4166C12.0083 11.4166 12.4958 11.2146 12.8553 10.8552C13.2147 10.4958 13.4167 10.0082 13.4167 9.49992C13.4167 8.99158 13.2147 8.50407 12.8553 8.14463C12.4958 7.78518 12.0083 7.58325 11.5 7.58325ZM7.66667 9.49992C7.66685 8.783 7.86808 8.08049 8.24749 7.4722C8.6269 6.8639 9.16929 6.3742 9.81306 6.0587C10.4568 5.74321 11.1762 5.61456 11.8894 5.68739C12.6026 5.76021 13.2811 6.03158 13.8478 6.47067C14.4145 6.90977 14.8468 7.49899 15.0954 8.17141C15.3441 8.84383 15.3991 9.57251 15.2544 10.2747C15.1097 10.9768 14.771 11.6243 14.2767 12.1437C13.7825 12.663 13.1525 13.0333 12.4583 13.2125V17.9131H10.5417V13.2125C9.71866 13 8.98962 12.52 8.46919 11.8479C7.94876 11.1759 7.66646 10.3499 7.66667 9.49992Z" fill="#FF767C"/>
</svg>
