<svg width="26" height="26" viewBox="0 0 26 26" fill="none" xmlns="http://www.w3.org/2000/svg">
<path d="M13 25.5C19.8925 25.5 25.5 19.8925 25.5 13C25.5 6.1075 19.8925 0.5 13 0.5C6.1075 0.5 0.5 6.1075 0.5 13C0.5 19.8925 6.1075 25.5 13 25.5ZM17.3662 9.25C17.6155 9.24363 17.8635 9.28724 18.0956 9.37823C18.3277 9.46923 18.5392 9.60578 18.7177 9.77983C18.8962 9.95389 19.038 10.1619 19.1349 10.3917C19.2317 10.6214 19.2815 10.8682 19.2814 11.1175C19.2813 11.3668 19.2313 11.6136 19.1344 11.8433C19.0374 12.0729 18.8954 12.2809 18.7168 12.4548C18.5382 12.6288 18.3266 12.7652 18.0944 12.856C17.8622 12.9468 17.6142 12.9903 17.365 12.9838C16.8782 12.971 16.4157 12.7686 16.076 12.4198C15.7363 12.0709 15.5463 11.6032 15.5464 11.1163C15.5466 10.6293 15.7369 10.1617 16.0769 9.81311C16.4168 9.46449 16.8795 9.26243 17.3662 9.25ZM11.99 17.8988C12.6567 18.0325 13.3433 18.0325 14.01 17.8988C14.3262 17.8337 14.6412 17.735 14.9475 17.6075C15.24 17.4825 15.5275 17.3275 15.7963 17.1475C16.0563 16.97 16.305 16.765 16.535 16.5363C16.7638 16.3088 16.9688 16.06 17.1462 15.7963L19.2188 17.1925C18.6799 17.9911 17.9929 18.6789 17.195 19.2188C16.382 19.7673 15.4694 20.1513 14.5087 20.3487C13.5128 20.5488 12.487 20.5484 11.4913 20.3475C10.5303 20.1529 9.61762 19.7692 8.80625 19.2188C8.00831 18.6776 7.32065 17.9895 6.78 17.1912L8.8525 15.795C9.03125 16.0588 9.23625 16.3075 9.4625 16.5325C10.1527 17.2261 11.0317 17.7013 11.99 17.8988ZM8.625 9.25C8.87131 9.25008 9.11519 9.29868 9.34272 9.39301C9.57025 9.48735 9.77697 9.62557 9.95108 9.7998C10.1252 9.97402 10.2633 10.1808 10.3575 10.4084C10.4516 10.636 10.5001 10.8799 10.5 11.1263C10.4999 11.3726 10.4513 11.6164 10.357 11.844C10.2627 12.0715 10.1244 12.2782 9.9502 12.4523C9.77598 12.6264 9.56916 12.7645 9.34157 12.8587C9.11398 12.9529 8.87006 13.0013 8.62375 13.0013C8.1263 13.0011 7.6493 12.8033 7.29767 12.4515C6.94604 12.0996 6.74858 11.6224 6.74875 11.125C6.74892 10.6276 6.94668 10.1505 7.29855 9.79892C7.65041 9.44728 8.12755 9.24983 8.625 9.25Z" fill="#A449EB"/>
</svg>
