<svg width="38" height="38" viewBox="0 0 38 38" fill="none" xmlns="http://www.w3.org/2000/svg">
<rect width="38" height="38" rx="19" fill="#A449EB"/>
<path d="M27.3785 25.7691H26.1989V17.1525C26.1989 16.826 26.0725 16.513 25.8475 16.2821C25.6225 16.0513 25.3173 15.9216 24.9991 15.9216H21.6996C21.6201 15.9216 21.5438 15.954 21.4875 16.0117C21.4313 16.0694 21.3996 16.1477 21.3996 16.2293V25.7691H20.1998V12.2603C20.2018 12.0686 20.1613 11.8789 20.0812 11.7056C20.0012 11.5323 19.8838 11.38 19.7379 11.2602C19.539 11.1011 19.2964 11.0104 19.0444 11.0008C18.7924 10.9913 18.5438 11.0635 18.3341 11.2071L12.335 15.3061C12.1704 15.4188 12.0355 15.5714 11.9424 15.7505C11.8492 15.9295 11.8007 16.1294 11.8011 16.3324V25.7691H10.6215C10.4664 25.7667 10.3163 25.8247 10.2012 25.9313C10.0862 26.0379 10.0148 26.1853 10.0013 26.3438C9.99587 26.4279 10.0074 26.5124 10.0351 26.5918C10.0627 26.6713 10.1061 26.744 10.1623 26.8056C10.2186 26.8671 10.2866 26.9161 10.3621 26.9496C10.4376 26.983 10.519 27.0002 10.6012 27H27.3988C27.481 27.0002 27.5624 26.983 27.6379 26.9496C27.7134 26.9161 27.7814 26.8671 27.8377 26.8056C27.8939 26.744 27.9373 26.6713 27.9649 26.5918C27.9926 26.5124 28.0041 26.4279 27.9987 26.3438C27.9852 26.1853 27.9138 26.0379 27.7987 25.9313C27.6837 25.8247 27.5336 25.7667 27.3785 25.7691ZM15.1006 23.9227C15.1008 24.007 15.084 24.0905 15.0514 24.168C15.0188 24.2455 14.971 24.3152 14.9111 24.3729C14.8511 24.4307 14.7801 24.4751 14.7027 24.5035C14.6253 24.5319 14.543 24.5437 14.4609 24.5381C14.3063 24.5243 14.1626 24.4509 14.0586 24.3327C13.9547 24.2145 13.8983 24.0603 13.9007 23.9011V22.7125C13.8986 22.5535 13.9552 22.3996 14.0591 22.2816C14.163 22.1636 14.3065 22.0902 14.4609 22.0763C14.543 22.0707 14.6253 22.0824 14.7027 22.1109C14.7801 22.1393 14.8511 22.1837 14.9111 22.2414C14.971 22.2992 15.0188 22.3689 15.0514 22.4464C15.084 22.5238 15.1008 22.6074 15.1006 22.6917V23.9227ZM15.1006 19.6144C15.1008 19.6988 15.084 19.7823 15.0514 19.8597C15.0188 19.9372 14.971 20.0069 14.9111 20.0647C14.8511 20.1224 14.7801 20.1668 14.7027 20.1952C14.6253 20.2237 14.543 20.2354 14.4609 20.2299C14.3064 20.2159 14.1627 20.1424 14.0588 20.0243C13.9549 19.9061 13.8984 19.752 13.9007 19.5928V18.4042C13.8986 18.2452 13.9552 18.0913 14.0591 17.9733C14.163 17.8553 14.3065 17.7819 14.4609 17.768C14.543 17.7624 14.6253 17.7742 14.7027 17.8026C14.7801 17.831 14.8511 17.8755 14.9111 17.9332C14.971 17.9909 15.0188 18.0606 15.0514 18.1381C15.084 18.2156 15.1008 18.2991 15.1006 18.3834V19.6144ZM18.1001 23.9227C18.1003 24.007 18.0836 24.0905 18.051 24.168C18.0184 24.2455 17.9706 24.3152 17.9106 24.3729C17.8506 24.4307 17.7797 24.4751 17.7023 24.5035C17.6248 24.5319 17.5425 24.5437 17.4605 24.5381C17.3061 24.5243 17.1626 24.4512 17.0587 24.3333C16.9548 24.2154 16.8982 24.0616 16.9003 23.9027V22.7125C16.8984 22.5536 16.955 22.3999 17.0589 22.282C17.1628 22.1642 17.3062 22.091 17.4605 22.077C17.5425 22.0714 17.6248 22.0832 17.7023 22.1116C17.7797 22.14 17.8506 22.1845 17.9106 22.2422C17.9706 22.2999 18.0184 22.3697 18.051 22.4472C18.0836 22.5246 18.1003 22.6081 18.1001 22.6925V23.9227ZM18.1001 19.6144C18.1003 19.6988 18.0836 19.7823 18.051 19.8597C18.0184 19.9372 17.9706 20.0069 17.9106 20.0647C17.8506 20.1224 17.7797 20.1668 17.7023 20.1952C17.6248 20.2237 17.5425 20.2354 17.4605 20.2299C17.3062 20.2159 17.1628 20.1427 17.0589 20.0248C16.955 19.907 16.8984 19.7532 16.9003 19.5944V18.4042C16.8984 18.2454 16.955 18.0916 17.0589 17.9738C17.1628 17.8559 17.3062 17.7827 17.4605 17.7688C17.5425 17.7632 17.6248 17.7749 17.7023 17.8034C17.7797 17.8318 17.8506 17.8762 17.9106 17.9339C17.9706 17.9917 18.0184 18.0614 18.051 18.1389C18.0836 18.2163 18.1003 18.2998 18.1001 18.3842V19.6144Z" fill="white"/>
</svg>
