<svg width="19" height="18" viewBox="0 0 19 18" fill="none" xmlns="http://www.w3.org/2000/svg">
<path d="M18.37 8.69986C18.2067 4.13924 14.5269 0.459353 9.96623 0.303719C9.96269 -0.0994387 9.37402 -0.100483 9.36596 0.296117C7.1646 0.378587 5.16828 1.27309 3.67243 2.69719C3.86373 2.7058 4.35475 2.66857 4.53081 2.73921C5.85672 1.64661 7.5379 0.977096 9.36596 0.909644V3.00899C8.8404 3.03516 8.33207 3.12509 7.85029 3.27644C7.97334 3.4355 8.06638 3.62158 8.11741 3.82569C8.51715 3.70381 8.9354 3.63215 9.36596 3.60852V5.41214C8.80958 5.45827 8.28829 5.63003 7.83228 5.90261C7.98834 6.02866 8.10239 6.20875 8.14742 6.41284C8.51013 6.19717 8.92442 6.06284 9.36596 6.01888V6.61977C8.28206 6.75588 7.42198 7.61596 7.28587 8.69986H1.57129C1.61465 7.52336 1.9079 6.40909 2.40586 5.41039C2.19754 5.2072 2.14234 4.88409 2.16275 4.59403C1.44823 5.80647 1.02349 7.20482 0.9724 8.69986C0.566367 8.7024 0.564846 9.2915 0.962214 9.30013C1.12545 13.8608 4.80533 17.5406 9.36596 17.6963C9.36942 18.0994 9.95824 18.1005 9.96622 17.7039C10.9619 17.6628 11.9156 17.4623 12.7995 17.1186C12.7184 16.9355 12.6704 16.7374 12.6674 16.5243C11.8281 16.8639 10.917 17.0616 9.96622 17.0964V14.9926C10.9487 14.944 11.8696 14.661 12.6734 14.1923C12.6621 14.1497 12.6693 13.5462 12.6674 13.487C11.8871 14.0136 10.9621 14.3362 9.96622 14.3911V12.5864C11.7135 12.4414 13.1075 11.0474 13.2525 9.30013H15.0572C15.0023 10.296 14.6797 11.221 14.1531 12.0013C14.2149 12.0033 14.8136 11.9959 14.8584 12.0073C15.3271 11.2035 15.6101 10.2826 15.6587 9.30013H17.7625C17.7277 10.2509 17.53 11.162 17.1904 12.0013C17.4035 12.0043 17.6016 12.0523 17.7847 12.1334C18.1284 11.2495 18.3289 10.2958 18.363 9.30013C18.7655 9.29632 18.7664 8.70783 18.37 8.69986ZM9.36596 17.096C5.13553 16.941 1.72508 13.5306 1.5701 9.30013H3.67862C3.83149 12.3706 6.29543 14.8346 9.36596 14.9875V17.096ZM9.36596 14.3872C6.62828 14.2354 4.4307 12.0378 4.27891 9.30013H6.07968C6.22467 11.0474 7.6187 12.4414 9.36596 12.5864V14.3872ZM9.36596 11.9861C7.95115 11.8447 6.82142 10.7149 6.67998 9.30013H7.28587C7.42198 10.384 8.28206 11.2441 9.36596 11.3802V11.9861ZM9.96623 11.9861V11.3802C11.0501 11.2441 11.9102 10.384 12.0463 9.30013H12.6522C12.5108 10.7149 11.381 11.8447 9.96623 11.9861ZM12.0463 8.69986C11.9102 7.61596 11.0501 6.75588 9.96623 6.61977V6.01388C11.381 6.15532 12.5108 7.28505 12.6522 8.69986H12.0463ZM13.2525 8.69986C13.1075 6.9526 11.7135 5.55857 9.96623 5.41358V3.61279C12.704 3.7644 14.9017 5.95962 15.0533 8.69986H13.2525ZM15.6536 8.69986C15.5007 5.62933 13.0368 3.16539 9.96623 3.01252V0.904004C14.1967 1.05898 17.6071 4.46943 17.7621 8.69986H15.6536Z" fill="#FF6161"/>
<path d="M3.96289 5.6986C4.01323 7.28518 6.31386 7.28482 6.36396 5.69856C6.31362 4.112 4.01299 4.11238 3.96289 5.6986Z" fill="#FF6161"/>
<path d="M7.56447 4.19776C7.56447 3.70125 7.16058 3.29736 6.66407 3.29736H6.06381C5.89791 3.29736 5.76367 3.43175 5.76367 3.5975C5.76367 3.76325 5.89791 3.89763 6.06381 3.89763H6.66407C6.82967 3.89763 6.96421 4.03231 6.96421 4.19776V4.79803C6.96421 4.96378 7.09845 5.09817 7.26434 5.09817C7.43023 5.09817 7.56447 4.96378 7.56447 4.79803V4.19776Z" fill="#FF6161"/>
<path d="M4.26434 3.29736H3.66407C3.16756 3.29736 2.76367 3.70125 2.76367 4.19776V4.79803C2.76367 4.96378 2.89791 5.09817 3.06381 5.09817C3.2297 5.09817 3.36394 4.96378 3.36394 4.79803V4.19776C3.36394 4.03231 3.49847 3.89763 3.66407 3.89763H4.26434C4.65836 3.89135 4.65916 3.30385 4.26434 3.29736Z" fill="#FF6161"/>
<path d="M2.76367 7.19923C2.76367 7.69574 3.16756 8.09963 3.66407 8.09963H4.26434C4.43023 8.09963 4.56447 7.96525 4.56447 7.7995C4.56447 7.63375 4.43023 7.49936 4.26434 7.49936H3.66407C3.49847 7.49936 3.36394 7.36468 3.36394 7.19923V6.59896C3.36394 6.43321 3.2297 6.29883 3.06381 6.29883C2.89791 6.29883 2.76367 6.43321 2.76367 6.59896V7.19923Z" fill="#FF6161"/>
<path d="M7.26434 6.29883C7.09845 6.29883 6.96421 6.43321 6.96421 6.59896V7.19923C6.96421 7.36468 6.82967 7.49936 6.66407 7.49936H6.06381C5.89791 7.49936 5.76367 7.63375 5.76367 7.7995C5.76367 7.96525 5.89791 8.09963 6.06381 8.09963H6.66407C7.16058 8.09963 7.56447 7.69574 7.56447 7.19923V6.59896C7.56447 6.43321 7.43023 6.29883 7.26434 6.29883Z" fill="#FF6161"/>
<path d="M16.8698 15.0028C16.8196 13.4162 14.5188 13.4166 14.4688 15.0028C14.519 16.5894 16.8198 16.589 16.8698 15.0028Z" fill="#FF6161"/>
<path d="M17.1699 12.6016H16.5697C16.4038 12.6016 16.2695 12.7358 16.2695 12.9017C16.2695 13.0676 16.4038 13.2018 16.5697 13.2018H17.1699C17.3355 13.2018 17.4701 13.3364 17.4701 13.502V14.1022C17.4701 14.2681 17.6043 14.4024 17.7702 14.4024C17.9361 14.4024 18.0703 14.2681 18.0703 14.1022V13.502C18.0703 13.0055 17.6664 12.6016 17.1699 12.6016Z" fill="#FF6161"/>
<path d="M13.8678 14.1022V13.502C13.8678 13.3364 14.0024 13.2018 14.168 13.2018H14.7682C15.1623 13.1957 15.1631 12.6079 14.7682 12.6016H14.168C13.6715 12.6016 13.2676 13.0055 13.2676 13.502V14.1022C13.2742 14.4965 13.8612 14.497 13.8678 14.1022Z" fill="#FF6161"/>
<path d="M14.7682 16.8037H14.168C14.0024 16.8037 13.8678 16.6691 13.8678 16.5035V15.9033C13.8617 15.5092 13.274 15.5084 13.2676 15.9033V16.5035C13.2676 17 13.6715 17.4039 14.168 17.4039H14.7682C15.1625 17.3973 15.1631 16.8103 14.7682 16.8037Z" fill="#FF6161"/>
<path d="M17.7702 15.603C17.6043 15.603 17.4701 15.7373 17.4701 15.9032V16.5034C17.4701 16.669 17.3355 16.8036 17.1699 16.8036H16.5697C16.4038 16.8036 16.2695 16.9378 16.2695 17.1037C16.2695 17.2696 16.4038 17.4038 16.5697 17.4038H17.1699C17.6664 17.4038 18.0703 16.9999 18.0703 16.5034V15.9032C18.0703 15.7373 17.9361 15.603 17.7702 15.603Z" fill="#FF6161"/>
</svg>
