<svg width="23" height="14" viewBox="0 0 23 14" fill="none" xmlns="http://www.w3.org/2000/svg">
<path d="M13.6224 9.44319C16.7678 10.6046 20.3487 9.73353 22.9134 7.99146C23.0828 7.89468 22.986 7.62853 22.7924 7.65273C20.0342 8.01566 17.2517 8.45117 14.7112 7.33819C12.9933 6.63652 11.4206 5.49934 9.75113 4.6525C6.70251 3.29755 3.00061 3.78146 0.169748 5.28158C0.000380568 5.37836 0.0729668 5.64451 0.290725 5.62031C3.19417 5.23319 6.31538 5.1606 8.73492 6.66071C10.235 7.74951 11.711 8.78991 13.6224 9.44319Z" fill="#FF9500"/>
<path d="M16.1621 11.7895C16.3073 11.6928 16.2347 11.4508 16.0654 11.4508C14.7346 11.4024 13.3797 11.4266 12.1699 11.1363C10.3552 10.7007 9.00031 9.46678 7.52439 8.49896C5.371 7.11983 2.34657 7.265 0.0963983 8.37799C-0.0729695 8.45057 -0.000383311 8.69253 0.168984 8.69253C2.22559 8.74092 4.35479 8.93448 5.8791 10.1443C6.84691 11.0395 7.83893 11.8863 9.16967 12.467C11.4198 13.5558 14.2265 13.0719 16.1621 11.7895Z" fill="#FF9500"/>
<path d="M15.484 5.4987C17.831 6.36974 20.5892 5.66807 22.3555 4.21635C22.5007 4.09537 22.4039 3.87761 22.2345 3.90181C20.8796 3.9502 19.5488 4.09537 18.3149 3.90181C16.4518 3.61146 14.9759 2.49848 13.379 1.65164C11.0804 0.466062 8.08022 0.828993 5.97522 2.11135C5.80585 2.20813 5.90263 2.45009 6.072 2.45009C8.12861 2.32911 10.282 2.3533 11.9273 3.4421C12.9919 4.26474 14.0565 5.0148 15.484 5.4987Z" fill="#FF9500"/>
</svg>
