<svg width="21" height="17" viewBox="0 0 21 17" fill="none" xmlns="http://www.w3.org/2000/svg">
<path d="M18.5286 14.9167H20.362V16.75H0.195312V14.9167H2.02865V1.16667C2.02865 0.923552 2.12522 0.690394 2.29713 0.518485C2.46904 0.346577 2.7022 0.25 2.94531 0.25H12.112C12.3551 0.25 12.5883 0.346577 12.7602 0.518485C12.9321 0.690394 13.0286 0.923552 13.0286 1.16667V14.9167H14.862V5.75H17.612C17.8551 5.75 18.0883 5.84658 18.2602 6.01849C18.4321 6.19039 18.5286 6.42355 18.5286 6.66667V14.9167ZM5.69531 7.58333V9.41667H9.36198V7.58333H5.69531ZM5.69531 3.91667V5.75H9.36198V3.91667H5.69531Z" fill="#058F9A"/>
</svg>
