<svg width="20" height="19" viewBox="0 0 20 19" fill="none" xmlns="http://www.w3.org/2000/svg">
<path d="M0.833984 6.75016C0.833984 5.02133 0.833984 4.15783 1.37115 3.62066C1.90832 3.0835 2.77182 3.0835 4.50065 3.0835H15.5007C17.2295 3.0835 18.093 3.0835 18.6301 3.62066C19.1673 4.15783 19.1673 5.02133 19.1673 6.75016C19.1673 7.18191 19.1673 7.39825 19.0335 7.533C18.8987 7.66683 18.6815 7.66683 18.2507 7.66683H1.75065C1.3189 7.66683 1.10257 7.66683 0.967818 7.533C0.833984 7.39825 0.833984 7.181 0.833984 6.75016Z" fill="#FF9500"/>
<path fill-rule="evenodd" clip-rule="evenodd" d="M0.833984 15C0.833984 16.7288 0.833984 17.5923 1.37115 18.1295C1.90832 18.6667 2.77182 18.6667 4.50065 18.6667H15.5007C17.2295 18.6667 18.093 18.6667 18.6301 18.1295C19.1673 17.5923 19.1673 16.7288 19.1673 15V10.4167C19.1673 9.98492 19.1673 9.76858 19.0335 9.63383C18.8987 9.5 18.6815 9.5 18.2507 9.5H1.75065C1.3189 9.5 1.10257 9.5 0.967818 9.63383C0.833984 9.76858 0.833984 9.98583 0.833984 10.4167V15ZM5.41732 12.25C5.41732 11.8182 5.41732 11.6019 5.55115 11.4672C5.6859 11.3333 5.90315 11.3333 6.33398 11.3333H8.16732C8.59907 11.3333 8.8154 11.3333 8.95015 11.4672C9.08398 11.6019 9.08398 11.8182 9.08398 12.25C9.08398 12.6817 9.08398 12.8981 8.95015 13.0328C8.8154 13.1667 8.59815 13.1667 8.16732 13.1667H6.33398C5.90223 13.1667 5.6859 13.1667 5.55115 13.0328C5.41732 12.8981 5.41732 12.6808 5.41732 12.25ZM5.55115 15.1338C5.41732 15.2686 5.41732 15.4858 5.41732 15.9167C5.41732 16.3475 5.41732 16.5647 5.55115 16.6995C5.6859 16.8333 5.90315 16.8333 6.33398 16.8333H8.16732C8.59907 16.8333 8.8154 16.8333 8.95015 16.6995C9.08398 16.5647 9.08398 16.3475 9.08398 15.9167C9.08398 15.4858 9.08398 15.2686 8.95015 15.1338C8.8154 15 8.59815 15 8.16732 15H6.33398C5.90223 15 5.6859 15 5.55115 15.1338ZM10.9173 12.25C10.9173 11.8182 10.9173 11.6019 11.0512 11.4672C11.1859 11.3333 11.4032 11.3333 11.834 11.3333H13.6673C14.0991 11.3333 14.3154 11.3333 14.4502 11.4672C14.584 11.6019 14.584 11.8182 14.584 12.25C14.584 12.6817 14.584 12.8981 14.4502 13.0328C14.3154 13.1667 14.0982 13.1667 13.6673 13.1667H11.834C11.4022 13.1667 11.1859 13.1667 11.0512 13.0328C10.9173 12.8981 10.9173 12.6808 10.9173 12.25ZM11.0512 15.1338C10.9173 15.2686 10.9173 15.4858 10.9173 15.9167C10.9173 16.3475 10.9173 16.5647 11.0512 16.6995C11.1859 16.8333 11.4022 16.8333 11.834 16.8333H13.6673C14.0991 16.8333 14.3154 16.8333 14.4502 16.6995C14.584 16.5647 14.584 16.3475 14.584 15.9167C14.584 15.4858 14.584 15.2686 14.4502 15.1338C14.3154 15 14.0982 15 13.6673 15H11.834C11.4022 15 11.1859 15 11.0512 15.1338Z" fill="#FF9500"/>
<path d="M5.41797 1.25V4M14.5846 1.25V4" stroke="#FF9500" stroke-width="2" stroke-linecap="round"/>
</svg>
