<svg width="15" height="18" viewBox="0 0 15 18" fill="none" xmlns="http://www.w3.org/2000/svg">
<path d="M4.25 4.90415L4.5 5.78497H10.5L10.75 4.90415H4.25ZM4.5 7.54663C4.13889 7.54663 3.8125 7.43301 3.52083 7.20575C3.22917 6.9785 3.02778 6.68107 2.91667 6.31347L2.5 4.90415H1.66667C1.20833 4.90415 0.816111 4.7318 0.49 4.3871C0.163889 4.0424 0.000555556 3.62753 0 3.14249V0.5H15V3.14249C15 3.62694 14.8369 4.04181 14.5108 4.3871C14.1847 4.73238 13.7922 4.90473 13.3333 4.90415H12.5L11.9583 6.40155C11.8333 6.73921 11.6319 7.01461 11.3542 7.22777C11.0764 7.44093 10.7639 7.54722 10.4167 7.54663H4.5ZM8.33333 17.5L6.75 16.9715L7.08333 15.8264C7.16667 15.4741 7.19444 15.1329 7.16667 14.8029C7.13889 14.4729 7.02778 14.1388 6.83333 13.8005C6.48611 13.2427 6.2675 12.6663 6.1775 12.0715C6.0875 11.4766 6.13944 10.8492 6.33333 10.1891L6.66667 9.04404L8.25 9.57254L7.91667 10.7176C7.80556 11.0553 7.77083 11.4041 7.8125 11.764C7.85417 12.124 7.97222 12.4505 8.16667 12.7435C8.48611 13.3014 8.69806 13.8886 8.8025 14.5052C8.90694 15.1218 8.86167 15.7383 8.66667 16.3549L8.33333 17.5ZM4.66667 17.5L3.08333 16.9715L3.41667 15.8264C3.5 15.4888 3.52778 15.1438 3.5 14.7915C3.47222 14.4391 3.36111 14.1088 3.16667 13.8005C2.80556 13.2573 2.58333 12.6775 2.5 12.0609C2.41667 11.4443 2.47222 10.8204 2.66667 10.1891L3 9.04404L4.58333 9.57254L4.25 10.7176C4.13889 11.0553 4.10417 11.4076 4.14583 11.7746C4.1875 12.1416 4.30556 12.4646 4.5 12.7435C4.83333 13.272 5.04861 13.8557 5.14583 14.4946C5.24306 15.1335 5.19444 15.7536 5 16.3549L4.66667 17.5ZM11.9167 17.5L10.3333 16.9715L10.6667 15.8264C10.75 15.4888 10.7778 15.1438 10.75 14.7915C10.7222 14.4391 10.6111 14.1088 10.4167 13.8005C10.0556 13.2573 9.83333 12.6775 9.75 12.0609C9.66667 11.4443 9.72222 10.8204 9.91667 10.1891L10.25 9.04404L11.8333 9.57254L11.5 10.7176C11.3889 11.0699 11.3542 11.4185 11.3958 11.7632C11.4375 12.1079 11.5556 12.4346 11.75 12.7435C12.0833 13.3014 12.2953 13.8886 12.3858 14.5052C12.4764 15.1218 12.4311 15.7383 12.25 16.3549L11.9167 17.5Z" fill="#A449EB"/>
</svg>
