<svg width="21" height="25" viewBox="0 0 21 25" fill="none" xmlns="http://www.w3.org/2000/svg">
<path d="M10.2942 0C7.56401 -1.1419e-05 4.94565 1.04143 3.01512 2.8952C1.08459 4.74898 1.46537e-05 7.26324 0 9.88488C0.00199362 11.9145 0.654577 13.8944 1.8691 15.5555C3.08362 17.2166 4.80121 18.4785 6.78854 19.1697L10.2941 25L13.8025 19.1648C15.7885 18.4735 17.5049 17.2122 18.7188 15.5521C19.9328 13.8919 20.5854 11.9134 20.5882 9.88488C20.5882 7.26326 19.5037 4.74901 17.5732 2.89524C15.6427 1.04147 13.0243 2.3501e-05 10.2942 0ZM10.2942 2.55263C12.3193 2.55263 14.2615 3.32514 15.6935 4.7002C17.1255 6.07526 17.93 7.94025 17.93 9.88488C17.93 11.8295 17.1255 13.6945 15.6935 15.0695C14.2615 16.4446 12.3193 17.2171 10.2942 17.2171C9.29143 17.2171 8.29849 17.0275 7.37206 16.659C6.44563 16.2905 5.60386 15.7505 4.8948 15.0696C4.18574 14.3887 3.62328 13.5804 3.23953 12.6908C2.85579 11.8012 2.65828 10.8478 2.65827 9.88488C2.65828 8.92199 2.85579 7.96852 3.23953 7.07893C3.62327 6.18933 4.18573 5.38101 4.89479 4.70015C5.60385 4.01928 6.44563 3.4792 7.37206 3.11072C8.29849 2.74225 9.29143 2.55261 10.2942 2.55263Z" fill="#30B0C7"/>
<path d="M10.2933 7.51217C10.6872 7.51217 11.0065 7.18284 11.0065 6.77659C11.0065 6.37034 10.6872 6.04102 10.2933 6.04102C9.89939 6.04102 9.58008 6.37034 9.58008 6.77659C9.58008 7.18284 9.89939 7.51217 10.2933 7.51217Z" fill="#30B0C7"/>
<path d="M10.1429 12.153C10.1429 11.2824 9.95658 10.5767 9.72673 10.5767C9.49688 10.5767 9.31055 11.2824 9.31055 12.153C9.31055 13.0236 9.49688 13.7293 9.72673 13.7293C9.95658 13.7293 10.1429 13.0236 10.1429 12.153Z" fill="#30B0C7"/>
<path d="M11.2777 12.153C11.2777 11.2824 11.0913 10.5767 10.8615 10.5767C10.6316 10.5767 10.4453 11.2824 10.4453 12.153C10.4453 13.0236 10.6316 13.7293 10.8615 13.7293C11.0913 13.7293 11.2777 13.0236 11.2777 12.153Z" fill="#30B0C7"/>
<path fill-rule="evenodd" clip-rule="evenodd" d="M8.62227 12.1218H12.9165L10.831 7.88314L9.80538 7.87988L7.66797 12.1218H8.62227Z" fill="#30B0C7"/>
</svg>
