<svg width="19" height="18" viewBox="0 0 19 18" fill="none" xmlns="http://www.w3.org/2000/svg">
<path fill-rule="evenodd" clip-rule="evenodd" d="M6.58438 0H9.22204V1.32344C10.0954 1.49743 10.9074 1.8411 11.6226 2.31843L12.5589 1.38222L14.424 3.24735L13.4878 4.18357C13.9651 4.89881 14.3086 5.71103 14.4828 6.58417H15.8062V9.22182H14.8451L13.2434 6.54898C13.0122 6.16283 12.5973 5.99142 12.2029 6.03411C11.481 4.37536 9.82766 3.21539 7.9031 3.21539C5.31414 3.21539 3.21539 5.31414 3.21539 7.9031C3.21539 10.4507 5.24785 12.5237 7.77975 12.5891L6.58438 14.584V14.4828C5.71103 14.3088 4.89903 13.9651 4.18357 13.4878L3.24735 14.424L1.38222 12.5589L2.31843 11.6226C1.8411 10.9074 1.49764 10.0952 1.32344 9.22182H0V6.58417H1.32344C1.49764 5.71081 1.8411 4.89881 2.31843 4.18335L1.38222 3.24714L3.24735 1.38201L4.18357 2.31822C4.89881 1.84089 5.71103 1.49743 6.58438 1.32323V0ZM7.9031 10.332C7.60855 10.332 7.36978 10.5708 7.36978 10.8653C7.36978 11.1599 7.60855 11.3987 7.9031 11.3987C8.19765 11.3987 8.43643 11.1599 8.43643 10.8653C8.43664 10.571 8.19765 10.332 7.9031 10.332ZM6.97118 6.40611C6.97118 5.89123 7.38823 5.47418 7.9031 5.47418C8.41798 5.47418 8.83502 5.89123 8.83502 6.40611C8.83502 6.86863 8.4995 7.2623 8.04062 7.32902C7.65725 7.3848 7.36956 7.71389 7.36956 8.10176V9.14395C7.36956 9.4385 7.60834 9.67727 7.90289 9.67727C8.19744 9.67727 8.43621 9.4385 8.43621 9.14395V8.33152C9.29863 8.09253 9.90146 7.30285 9.90146 6.40611C9.90146 5.30234 9.00643 4.40732 7.90267 4.40732C6.79891 4.40732 5.90389 5.30234 5.90389 6.40611C5.90389 6.70066 6.14266 6.93943 6.43721 6.93943C6.73241 6.93943 6.97118 6.70066 6.97118 6.40611ZM18.8362 17.0745L12.7178 6.86413C12.5387 6.56529 12.1038 6.56529 11.9249 6.86413L5.80649 17.0745C5.5615 17.4832 5.85433 18 6.33081 18H18.3119C18.7884 18 19.0812 17.4834 18.8362 17.0745ZM12.3214 16.9971C11.9605 16.9971 11.6681 16.7047 11.6681 16.3438C11.6681 15.983 11.9605 15.6906 12.3214 15.6906C12.6822 15.6906 12.9746 15.983 12.9746 16.3438C12.9746 16.7044 12.6822 16.9971 12.3214 16.9971ZM12.8292 14.401C12.8292 15.0369 11.8138 15.0369 11.8138 14.401L11.5021 9.8755C11.5021 8.84897 13.1409 8.84897 13.1409 9.8755L12.8292 14.401Z" fill="#A449EB"/>
</svg>
