<svg width="19" height="18" viewBox="0 0 19 18" fill="none" xmlns="http://www.w3.org/2000/svg">
<path d="M7.54206 16.9915C7.5479 16.992 7.5537 16.9923 7.55942 16.9923C7.60784 16.9922 7.65437 16.9735 7.68934 16.94C7.72431 16.9065 7.74504 16.8608 7.74722 16.8125C7.7494 16.7641 7.73287 16.7168 7.70105 16.6803C7.66923 16.6438 7.62458 16.6209 7.57637 16.6165C7.28976 16.5901 7.00982 16.556 6.74435 16.5148C6.53035 16.4815 6.3232 16.4433 6.12863 16.4008C6.08007 16.3908 6.02952 16.4004 5.98796 16.4274C5.9464 16.4545 5.91718 16.4968 5.90665 16.5452C5.89611 16.5937 5.90511 16.6443 5.93169 16.6862C5.95826 16.728 6.00028 16.7577 6.04861 16.7688C6.25048 16.8127 6.46501 16.8524 6.68636 16.8869C6.95967 16.9293 7.24755 16.9645 7.54206 16.9915Z" fill="#AF52DE"/>
<path d="M9.03789 17.0579C9.10379 17.0579 9.1694 17.0575 9.23472 17.0567C9.28466 17.0565 9.33243 17.0363 9.36754 17.0008C9.40265 16.9653 9.42221 16.9173 9.42193 16.8674C9.42165 16.8175 9.40154 16.7697 9.36602 16.7346C9.33051 16.6995 9.28251 16.6799 9.23258 16.6802H9.23039C9.16655 16.6809 9.10238 16.6813 9.03789 16.6813C8.98796 16.6813 8.94007 16.7011 8.90476 16.7364C8.86945 16.7717 8.84961 16.8196 8.84961 16.8696C8.84961 16.9195 8.86945 16.9674 8.90476 17.0027C8.94007 17.038 8.98796 17.0578 9.03789 17.0578V17.0579Z" fill="#AF52DE"/>
<path d="M3.89844 15.4198C3.89844 15.8448 4.32723 16.2231 5.13846 16.5138C5.18547 16.5307 5.23725 16.5281 5.2824 16.5068C5.32755 16.4855 5.36238 16.4471 5.37922 16.4001C5.39606 16.3531 5.39354 16.3013 5.37221 16.2561C5.35088 16.211 5.31249 16.1762 5.26548 16.1593C4.64528 15.9372 4.27512 15.6606 4.27512 15.4198C4.27512 15.0809 4.95429 14.7614 5.58989 14.5753C6.50833 14.3064 7.73288 14.1582 9.03794 14.1582C10.343 14.1582 11.5675 14.3064 12.486 14.5753C13.1216 14.7614 13.8008 15.081 13.8008 15.4198C13.8008 15.662 13.4269 15.9398 12.8006 16.1628C12.101 16.4119 11.1212 16.5854 10.0413 16.6512C9.99246 16.6542 9.94666 16.676 9.91363 16.7122C9.88061 16.7483 9.86296 16.7959 9.86443 16.8448C9.8659 16.8938 9.88637 16.9402 9.9215 16.9743C9.95664 17.0084 10.0037 17.0275 10.0526 17.0275C10.0565 17.0275 10.0603 17.0273 10.0643 17.0271C12.1116 16.9022 14.1773 16.3568 14.1773 15.4198C14.1773 14.3558 11.5294 13.7817 9.03794 13.7817C6.54648 13.7817 3.89844 14.3558 3.89844 15.4198Z" fill="#AF52DE"/>
<path d="M9.22565 15.8974C9.22565 15.8474 9.20581 15.7996 9.1705 15.7642C9.13519 15.7289 9.0873 15.7091 9.03737 15.7091C8.81551 15.7098 8.59386 15.6955 8.37393 15.6663C8.32446 15.6595 8.27432 15.6727 8.23456 15.7029C8.19479 15.7331 8.16865 15.7779 8.16189 15.8273C8.15513 15.8768 8.1683 15.927 8.1985 15.9667C8.22871 16.0065 8.27347 16.0326 8.32295 16.0394C8.55977 16.0709 8.79846 16.0864 9.03737 16.0857C9.0873 16.0857 9.13519 16.0658 9.1705 16.0305C9.20581 15.9952 9.22565 15.9473 9.22565 15.8974Z" fill="#AF52DE"/>
<path d="M9.66478 15.6714C9.65042 15.6732 9.63598 15.6749 9.62144 15.6766C9.57375 15.6822 9.53 15.7058 9.49913 15.7426C9.46827 15.7794 9.45262 15.8266 9.45539 15.8745C9.45816 15.9225 9.47914 15.9675 9.51404 16.0005C9.54894 16.0335 9.59512 16.0519 9.64313 16.0519C9.65054 16.0519 9.65795 16.0515 9.66531 16.0507C9.68116 16.0488 9.6969 16.0469 9.71249 16.0449C9.73733 16.0421 9.76138 16.0344 9.78322 16.0223C9.80506 16.0102 9.82427 15.9938 9.83973 15.9741C9.85518 15.9545 9.86657 15.932 9.87323 15.9079C9.8799 15.8838 9.8817 15.8586 9.87853 15.8339C9.87536 15.8091 9.86729 15.7852 9.85479 15.7635C9.84229 15.7419 9.8256 15.7229 9.80571 15.7078C9.78581 15.6927 9.7631 15.6817 9.73891 15.6754C9.71471 15.6692 9.68952 15.6678 9.66478 15.6714Z" fill="#AF52DE"/>
<path d="M10.2733 15.7464C10.2842 15.7686 10.2994 15.7884 10.3181 15.8047C10.3367 15.821 10.3583 15.8334 10.3817 15.8414C10.4052 15.8493 10.4299 15.8525 10.4546 15.8509C10.4793 15.8492 10.5034 15.8427 10.5256 15.8318C10.7997 15.6962 10.8573 15.5329 10.8573 15.4198C10.8573 15.0951 10.4164 14.9315 10.0465 14.8514C10.0222 14.8458 9.99706 14.8452 9.97254 14.8494C9.94801 14.8537 9.92457 14.8628 9.90357 14.8761C9.88258 14.8895 9.86444 14.9069 9.85021 14.9273C9.83598 14.9477 9.82594 14.9708 9.82067 14.9951C9.8154 15.0194 9.81501 15.0446 9.81952 15.0691C9.82403 15.0935 9.83334 15.1169 9.84693 15.1377C9.86052 15.1586 9.87811 15.1765 9.89868 15.1906C9.91925 15.2046 9.9424 15.2144 9.96678 15.2194C10.2944 15.2903 10.4325 15.3784 10.4721 15.4195C10.4385 15.4503 10.4002 15.4755 10.3587 15.4942C10.3365 15.5051 10.3167 15.5203 10.3004 15.5389C10.2841 15.5575 10.2717 15.5792 10.2637 15.6026C10.2558 15.626 10.2525 15.6508 10.2542 15.6755C10.2558 15.7001 10.2623 15.7243 10.2733 15.7464Z" fill="#AF52DE"/>
<path d="M9.42241 14.7669C9.29686 14.7583 9.1671 14.7539 9.03677 14.7539C8.3608 14.7539 7.2168 14.8942 7.2168 15.42C7.2168 15.6148 7.37247 15.7724 7.67956 15.8885C7.72627 15.9061 7.77809 15.9045 7.8236 15.884C7.86911 15.8634 7.9046 15.8256 7.92225 15.7789C7.9399 15.7322 7.93828 15.6804 7.91773 15.6349C7.89718 15.5894 7.85939 15.5539 7.81267 15.5362C7.67756 15.4852 7.62221 15.4404 7.6018 15.419C7.68784 15.3226 8.16371 15.1305 9.03692 15.1305C9.1587 15.1305 9.27981 15.1345 9.39684 15.1426C9.44666 15.146 9.4958 15.1294 9.53344 15.0966C9.57108 15.0638 9.59414 15.0174 9.59755 14.9676C9.60096 14.9177 9.58444 14.8686 9.55162 14.831C9.51881 14.7933 9.47238 14.7703 9.42256 14.7669H9.42241Z" fill="#AF52DE"/>
<path d="M3.45037 17.3598C3.47431 17.3665 3.49935 17.3684 3.52402 17.3654C3.5487 17.3623 3.57253 17.3544 3.59415 17.3421C3.61576 17.3299 3.63473 17.3134 3.64995 17.2938C3.66517 17.2741 3.67635 17.2516 3.68284 17.2276C3.68933 17.2036 3.691 17.1786 3.68776 17.1539C3.68451 17.1293 3.67642 17.1055 3.66395 17.084C3.65147 17.0625 3.63486 17.0437 3.61507 17.0286C3.59528 17.0136 3.57271 17.0026 3.54865 16.9963C3.23048 16.9116 2.91681 16.8108 2.60886 16.6943C1.60889 16.3107 1.05821 15.8583 1.05821 15.4201C1.05821 14.8881 1.90171 14.3234 3.31503 13.9096C3.61538 13.8217 3.94212 13.7401 4.28623 13.6669C4.31042 13.6618 4.33336 13.6519 4.35374 13.6379C4.37412 13.6239 4.39154 13.6061 4.40501 13.5853C4.41848 13.5646 4.42773 13.5414 4.43224 13.5171C4.43675 13.4928 4.43642 13.4678 4.43128 13.4436C4.42614 13.4194 4.41629 13.3965 4.40228 13.3761C4.38827 13.3557 4.37039 13.3383 4.34965 13.3248C4.32891 13.3113 4.30572 13.3021 4.28141 13.2976C4.25709 13.2931 4.23213 13.2934 4.20794 13.2985C3.85469 13.3736 3.51864 13.4576 3.20922 13.5482C1.55565 14.0324 0.681641 14.6797 0.681641 15.4201C0.681641 16.0339 1.30143 16.596 2.47409 17.0459C2.794 17.1669 3.11984 17.2717 3.45037 17.3598Z" fill="#AF52DE"/>
<path d="M5.89755 17.4386C5.6314 17.4058 5.36837 17.3684 5.11577 17.3275C5.06662 17.3198 5.01643 17.3319 4.97616 17.3611C4.93589 17.3903 4.90882 17.4342 4.90086 17.4834C4.8929 17.5325 4.9047 17.5827 4.93368 17.6232C4.96266 17.6636 5.00646 17.6909 5.05552 17.6992C5.31282 17.7409 5.58064 17.779 5.85154 17.8121C5.87625 17.8155 5.90138 17.814 5.92549 17.8075C5.94959 17.8011 5.97218 17.79 5.99195 17.7748C6.01171 17.7596 6.02826 17.7406 6.04062 17.7189C6.05299 17.6973 6.06092 17.6734 6.06397 17.6486C6.06703 17.6239 6.06513 17.5988 6.05839 17.5747C6.05165 17.5507 6.04021 17.5283 6.02473 17.5087C6.00926 17.4892 5.99004 17.4729 5.96822 17.4608C5.94639 17.4487 5.92238 17.4411 5.89759 17.4384L5.89755 17.4386Z" fill="#AF52DE"/>
<path d="M7.32509 17.9479C7.50399 17.9589 7.68659 17.9684 7.86824 17.9759C8.25234 17.992 8.64547 18.0001 9.03661 18.0001C10.3091 18.0037 11.5801 17.9127 12.8392 17.7278C13.0651 17.6933 13.2885 17.6551 13.503 17.6145C13.5273 17.6099 13.5504 17.6006 13.5711 17.587C13.5918 17.5735 13.6096 17.556 13.6235 17.5355C13.6374 17.5151 13.6472 17.4921 13.6522 17.4679C13.6573 17.4437 13.6575 17.4187 13.6529 17.3945C13.6483 17.3702 13.639 17.347 13.6254 17.3263C13.6119 17.3056 13.5944 17.2878 13.5739 17.2739C13.5535 17.26 13.5305 17.2502 13.5063 17.2452C13.4821 17.2401 13.4571 17.2399 13.4328 17.2445C13.2228 17.2843 13.0039 17.3217 12.7823 17.3556C11.5421 17.5376 10.2901 17.6271 9.03661 17.6234C8.65067 17.6234 8.26284 17.6154 7.88391 17.5996C7.70493 17.5921 7.52478 17.5828 7.34836 17.5719C7.29852 17.5688 7.24949 17.5856 7.21207 17.6187C7.17464 17.6518 7.15188 17.6983 7.1488 17.7482C7.14571 17.798 7.16255 17.847 7.19561 17.8845C7.22867 17.9219 7.27525 17.9447 7.32509 17.9477V17.9479Z" fill="#AF52DE"/>
<path d="M15.2785 16.9642C15.2709 16.9407 15.2587 16.9189 15.2426 16.9001C15.2266 16.8813 15.207 16.8658 15.185 16.8545C15.1629 16.8433 15.1389 16.8365 15.1142 16.8346C15.0896 16.8326 15.0648 16.8355 15.0413 16.8432C14.8782 16.8959 14.7048 16.9474 14.5259 16.9957C14.502 17.0022 14.4796 17.0133 14.4601 17.0284C14.4405 17.0435 14.424 17.0623 14.4117 17.0838C14.3869 17.1271 14.3802 17.1785 14.3933 17.2268C14.4063 17.275 14.438 17.3161 14.4813 17.3409C14.5246 17.3658 14.5761 17.3725 14.6243 17.3594C14.8091 17.3094 14.9885 17.2563 15.1575 17.2016C15.181 17.1939 15.2028 17.1817 15.2216 17.1657C15.2405 17.1496 15.2559 17.13 15.2672 17.108C15.2784 17.0859 15.2852 17.0619 15.2872 17.0372C15.2891 17.0125 15.2862 16.9877 15.2785 16.9642Z" fill="#AF52DE"/>
<path d="M15.3917 13.7168C15.3684 13.7086 15.3436 13.705 15.3189 13.7063C15.2942 13.7076 15.2701 13.7138 15.2477 13.7245C15.2254 13.7351 15.2054 13.7501 15.1889 13.7685C15.1724 13.7869 15.1596 13.8084 15.1514 13.8317C15.1431 13.855 15.1396 13.8797 15.1409 13.9044C15.1422 13.9291 15.1484 13.9533 15.159 13.9756C15.1697 13.9979 15.1847 14.0179 15.2031 14.0345C15.2215 14.051 15.2429 14.0637 15.2662 14.072C16.3789 14.4651 17.017 14.9563 17.017 15.4198C17.017 15.667 16.8423 15.9183 16.4977 16.1667C16.2825 16.317 16.0529 16.4455 15.8123 16.5503C15.7897 16.5604 15.7692 16.5749 15.7521 16.5929C15.7351 16.6109 15.7217 16.6321 15.7128 16.6552C15.704 16.6784 15.6998 16.7031 15.7005 16.7279C15.7013 16.7527 15.7069 16.7771 15.7171 16.7997C15.7272 16.8224 15.7418 16.8427 15.7599 16.8597C15.778 16.8767 15.7993 16.8899 15.8225 16.8987C15.8457 16.9074 15.8704 16.9115 15.8952 16.9106C15.92 16.9097 15.9444 16.904 15.967 16.8937C16.2306 16.7784 16.4821 16.6373 16.7178 16.4722C17.1662 16.149 17.3935 15.7949 17.3935 15.4198C17.3936 14.7683 16.7014 14.1795 15.3917 13.7168Z" fill="#AF52DE"/>
<path d="M13.6428 13.4436C13.6376 13.4678 13.6373 13.4928 13.6418 13.5171C13.6463 13.5414 13.6556 13.5646 13.6691 13.5853C13.6825 13.606 13.7 13.6239 13.7203 13.6379C13.7407 13.6519 13.7636 13.6618 13.7878 13.6669C14.081 13.7292 14.3623 13.7978 14.6238 13.8709C14.6476 13.8776 14.6725 13.8795 14.6971 13.8765C14.7216 13.8736 14.7453 13.8658 14.7669 13.8537C14.7884 13.8415 14.8074 13.8253 14.8226 13.8058C14.8379 13.7864 14.8492 13.7641 14.8558 13.7403C14.8625 13.7165 14.8644 13.6916 14.8614 13.667C14.8585 13.6425 14.8507 13.6188 14.8386 13.5972C14.8264 13.5757 14.8102 13.5567 14.7907 13.5415C14.7713 13.5262 14.749 13.5149 14.7252 13.5083C14.4559 13.4329 14.1668 13.3625 13.8659 13.2985C13.8171 13.2882 13.7662 13.2977 13.7243 13.3249C13.6825 13.3521 13.6532 13.3948 13.6428 13.4436Z" fill="#AF52DE"/>
<path d="M7.86951 12.8642C7.84467 12.865 7.82023 12.8707 7.79762 12.8811C7.775 12.8914 7.75466 12.9061 7.73775 12.9243C7.72085 12.9425 7.70772 12.9639 7.69912 12.9872C7.69052 13.0105 7.68663 13.0353 7.68766 13.0602C7.6887 13.085 7.69464 13.1094 7.70514 13.1319C7.71565 13.1545 7.73051 13.1747 7.74888 13.1914C7.76724 13.2082 7.78874 13.2211 7.81213 13.2295C7.83552 13.2379 7.86035 13.2416 7.88517 13.2404C8.26415 13.2246 8.65193 13.2166 9.03787 13.2166C10.2808 13.2131 11.5222 13.301 12.7522 13.4798C12.7616 13.4812 12.7711 13.4819 12.7806 13.4819C12.8281 13.4818 12.8738 13.4638 12.9086 13.4315C12.9433 13.3992 12.9646 13.3549 12.9682 13.3076C12.9717 13.2602 12.9572 13.2133 12.9276 13.1762C12.898 13.1391 12.8554 13.1145 12.8085 13.1074C11.56 12.9246 10.2996 12.8352 9.03787 12.84C8.64674 12.84 8.25364 12.8481 7.86951 12.8642Z" fill="#AF52DE"/>
<path d="M5.29348 13.4819C5.30298 13.4819 5.31247 13.4812 5.32187 13.4798C5.62787 13.4334 5.94697 13.3925 6.27081 13.3582C6.43808 13.3404 6.60972 13.324 6.78159 13.3095C6.83135 13.3053 6.8774 13.2815 6.90961 13.2433C6.94182 13.2052 6.95755 13.1558 6.95334 13.106C6.94913 13.0563 6.92532 13.0102 6.88716 12.978C6.849 12.9458 6.7996 12.9301 6.74984 12.9343C6.57549 12.9491 6.40096 12.9657 6.23105 12.9837C5.90193 13.0187 5.57715 13.0603 5.26565 13.1074C5.2187 13.1145 5.17616 13.1391 5.14655 13.1762C5.11695 13.2133 5.10246 13.2602 5.10599 13.3076C5.10952 13.3549 5.13082 13.3992 5.16561 13.4315C5.2004 13.4638 5.24611 13.4818 5.29359 13.4819H5.29348Z" fill="#AF52DE"/>
<path d="M8.55302 5.49724L8.25279 4.26697C8.24307 4.22715 8.2466 4.18525 8.26286 4.14763C8.27912 4.11001 8.3072 4.07872 8.34286 4.05851C8.37851 4.03831 8.41978 4.03028 8.46041 4.03566C8.50104 4.04104 8.5388 4.05953 8.56797 4.08832L9.73464 5.23997C9.75241 5.25747 9.76653 5.27832 9.77618 5.30132C9.78582 5.32432 9.7908 5.34901 9.79083 5.37395V5.96425H14.6109V1.05664H3.46484V5.96425H8.31499L8.55302 5.49724Z" fill="#AF52DE"/>
<path d="M3.08793 0.433105H2.20703V6.58718H3.08793V0.433105Z" fill="#AF52DE"/>
<path d="M15.8672 0.433105H14.9863V6.58718H15.8672V0.433105Z" fill="#AF52DE"/>
<path d="M17.8865 0H16.4324C16.3825 5.97931e-05 16.3346 0.0199158 16.2994 0.0552126C16.2641 0.0905094 16.2442 0.138365 16.2441 0.188282V1.92914H18.0748V0.188282C18.0747 0.138365 18.0549 0.0905094 18.0196 0.0552126C17.9843 0.0199158 17.9364 5.97931e-05 17.8865 0Z" fill="#AF52DE"/>
<path d="M1.83067 6.8328V5.0918H0V6.8328C5.97931e-05 6.88272 0.0199158 6.93058 0.0552126 6.96587C0.0905094 7.00117 0.138365 7.02103 0.188282 7.02109H1.64239C1.6923 7.02103 1.74016 7.00117 1.77546 6.96587C1.81075 6.93058 1.83061 6.88272 1.83067 6.8328Z" fill="#AF52DE"/>
<path d="M18.0748 2.30566H16.2441V4.7153H18.0748V2.30566Z" fill="#AF52DE"/>
<path d="M1.83067 0.188282C1.83061 0.138365 1.81075 0.0905094 1.77546 0.0552126C1.74016 0.0199158 1.6923 5.97931e-05 1.64239 0H0.188282C0.138365 5.97931e-05 0.0905094 0.0199158 0.0552126 0.0552126C0.0199158 0.0905094 5.97931e-05 0.138365 0 0.188282V1.92914H1.83067V0.188282Z" fill="#AF52DE"/>
<path d="M16.2441 6.8328C16.2442 6.88272 16.2641 6.93058 16.2994 6.96587C16.3346 7.00117 16.3825 7.02103 16.4324 7.02109H17.8865C17.9364 7.02103 17.9843 7.00117 18.0196 6.96587C18.0549 6.93058 18.0747 6.88272 18.0748 6.8328V5.0918H16.2441V6.8328Z" fill="#AF52DE"/>
<path d="M1.83067 2.30566H0V4.7153H1.83067V2.30566Z" fill="#AF52DE"/>
<path d="M10.4914 8.91169L9.19142 7.10041C9.17398 7.07613 9.15101 7.05636 9.12441 7.04272C9.09781 7.02908 9.06835 7.02197 9.03845 7.02197C9.0086 7.02197 8.97918 7.02907 8.95261 7.04268C8.92604 7.0563 8.90309 7.07603 8.88565 7.10026L7.58567 8.90656C7.58217 8.91146 7.57885 8.91651 7.57584 8.92163C7.30245 9.39064 7.30566 9.96023 7.58439 10.4453C7.73035 10.7026 7.94197 10.9166 8.19765 11.0654C8.45333 11.2142 8.74391 11.2925 9.03974 11.2923C9.33557 11.2921 9.62605 11.2135 9.88153 11.0643C10.137 10.9152 10.3484 10.7009 10.494 10.4434C10.7714 9.9594 10.7739 9.39222 10.5008 8.92622C10.4979 8.92128 10.4947 8.91643 10.4914 8.91169ZM9.89872 9.57779C9.8298 9.9036 9.66448 10.2011 9.42424 10.4318C9.38833 10.4665 9.3401 10.4855 9.29017 10.4846C9.24024 10.4837 9.1927 10.463 9.15801 10.4271C9.12332 10.3912 9.10432 10.343 9.10519 10.2931C9.10606 10.2431 9.12673 10.1956 9.16265 10.1609C9.34818 9.98341 9.47603 9.75422 9.52961 9.50312C9.54021 9.45488 9.56934 9.41273 9.61073 9.38577C9.65211 9.35881 9.70243 9.34919 9.75084 9.35898C9.79926 9.36878 9.84188 9.39721 9.86953 9.43814C9.89717 9.47907 9.90763 9.52922 9.89864 9.57779H9.89872Z" fill="#AF52DE"/>
</svg>
