<svg width="16" height="18" viewBox="0 0 16 18" fill="none" xmlns="http://www.w3.org/2000/svg">
<path fill-rule="evenodd" clip-rule="evenodd" d="M5.43878 8.30775C2.80457 8.30775 0.666016 10.4792 0.666016 13.154C0.666016 15.8285 2.80457 18 5.43878 18C8.07283 18 10.2114 15.8285 10.2114 13.154C10.2114 10.4792 8.07283 8.30775 5.43878 8.30775ZM9.52248 1.92047C8.85631 2.91789 7.71021 4.69573 6.70221 6.56347C6.52139 6.8986 6.10674 7.02155 5.77669 6.83795C5.44663 6.65435 5.32554 6.23315 5.50636 5.89819C7.0771 2.98767 8.97479 0.289999 8.97479 0.289999C9.10471 0.105402 9.31548 -0.00293042 9.53884 6.0347e-05C9.76236 0.00321727 9.97018 0.117365 10.095 0.305451C10.095 0.305451 11.4763 2.38686 11.5249 2.46329C12.5105 4.01517 13.7873 6.16387 14.6523 8.1195C15.2664 9.50838 15.666 10.8115 15.666 11.7692C15.666 14.6704 13.7089 17.1109 11.0634 17.8033C10.699 17.8986 10.3269 17.6758 10.233 17.3058C10.1391 16.9358 10.3587 16.558 10.7231 16.4626C12.7806 15.9241 14.3023 14.0256 14.3023 11.7692C14.3023 10.9577 13.9287 9.86361 13.4083 8.68675C12.5712 6.79392 11.3328 4.71567 10.3789 3.21364C10.3518 3.17111 9.90636 2.49918 9.52248 1.92047ZM5.43878 9.69231C7.32026 9.69231 8.8478 11.2434 8.8478 13.154C8.8478 15.0644 7.32026 16.6154 5.43878 16.6154C3.55713 16.6154 2.02959 15.0644 2.02959 13.154C2.02959 11.2434 3.55713 9.69231 5.43878 9.69231ZM5.43878 14.5385C5.81498 14.5385 6.12049 14.8487 6.12049 15.2309C6.12049 15.6129 5.81498 15.9231 5.43878 15.9231C5.06242 15.9231 4.75691 15.6129 4.75691 15.2309C4.75691 14.8487 5.06242 14.5385 5.43878 14.5385ZM4.75691 11.0897V13.154C4.75691 13.5359 5.06242 13.8462 5.43878 13.8462C5.81498 13.8462 6.12049 13.5359 6.12049 13.154V11.0897C6.12049 10.7075 5.81498 10.3973 5.43878 10.3973C5.06242 10.3973 4.75691 10.7075 4.75691 11.0897Z" fill="#FF6161"/>
</svg>
