<svg width="16" height="17" viewBox="0 0 16 17" fill="none" xmlns="http://www.w3.org/2000/svg">
<path fill-rule="evenodd" clip-rule="evenodd" d="M7.99987 16.5C9.44499 16.5001 10.8632 16.1087 12.1037 15.3675C13.3442 14.6262 14.3608 13.5626 15.0454 12.2899C15.73 11.0171 16.0571 9.58267 15.9918 8.13892C15.9266 6.69517 15.4715 5.29606 14.675 4.09022L8.31541 11.1569C8.01835 11.487 7.60849 11.694 7.16649 11.7371C6.72449 11.7802 6.28236 11.6563 5.92713 11.3898L3.02245 9.21111C2.83386 9.06966 2.70919 8.85909 2.67585 8.62571C2.64251 8.39233 2.70324 8.15526 2.84468 7.96667C2.98612 7.77807 3.19668 7.65339 3.43004 7.62005C3.66341 7.58671 3.90045 7.64744 4.08904 7.78889L6.99372 9.96756L13.523 2.71333C12.5772 1.81032 11.4243 1.15298 10.1655 0.798864C8.90668 0.44475 7.58024 0.404661 6.30233 0.682109C5.02442 0.959556 3.83401 1.54608 2.83532 2.39032C1.83664 3.23457 1.06013 4.31078 0.5738 5.52475C0.0874664 6.73871 -0.0938662 8.0534 0.0456795 9.3537C0.185225 10.654 0.641394 11.9003 1.37424 12.9834C2.10709 14.0665 3.09428 14.9534 4.24936 15.5665C5.40444 16.1795 6.6922 16.5001 7.99987 16.5Z" fill="#A449EB"/>
</svg>
