<svg width="14" height="16" viewBox="0 0 14 16" fill="none" xmlns="http://www.w3.org/2000/svg">
<path d="M1.24127 0H0V1.8772H1.24127V0Z" fill="#A449EB"/>
<path d="M1.24127 15.0908H0V15.9999H1.24127V15.0908Z" fill="#A449EB"/>
<path d="M6.82721 15.0908H5.58594V15.9999H6.82721V15.0908Z" fill="#A449EB"/>
<path d="M6.82721 0H5.58594V1.8772H6.82721V0Z" fill="#A449EB"/>
<path d="M8.37409 0H7.13281V1.8772H8.37409V0Z" fill="#A449EB"/>
<path d="M8.37409 15.0908H7.13281V15.9999H8.37409V15.0908Z" fill="#A449EB"/>
<path d="M13.962 15.0908H12.7207V15.9999H13.962V15.0908Z" fill="#A449EB"/>
<path d="M13.962 0H12.7207V1.8772H13.962V0Z" fill="#A449EB"/>
<path d="M0 14.7854H1.24127V7.31533C1.24127 7.27479 1.25738 7.23591 1.28605 7.20724C1.31471 7.17857 1.3536 7.16247 1.39414 7.16247H5.43388C5.47443 7.16247 5.51331 7.17857 5.54198 7.20724C5.57064 7.23591 5.58675 7.27479 5.58675 7.31533V14.7854H6.82802V2.18311H0V14.7854ZM3.41401 2.61317C3.55873 2.61317 3.7002 2.65608 3.82053 2.73649C3.94086 2.81689 4.03465 2.93117 4.09003 3.06487C4.14541 3.19858 4.1599 3.3457 4.13167 3.48764C4.10344 3.62958 4.03375 3.75996 3.93141 3.86229C3.82908 3.96463 3.6987 4.03431 3.55676 4.06255C3.41482 4.09078 3.2677 4.07629 3.13399 4.02091C3.00029 3.96553 2.88601 3.87174 2.80561 3.75141C2.72521 3.63108 2.68229 3.48961 2.68229 3.34489C2.68229 3.15082 2.75938 2.96471 2.89661 2.82748C3.03383 2.69026 3.21995 2.61317 3.41401 2.61317ZM2.26446 6.25138L3.28357 4.62081C3.29875 4.60056 3.31845 4.58412 3.34109 4.5728C3.36373 4.56148 3.3887 4.55559 3.41401 4.55559C3.43932 4.55559 3.46429 4.56148 3.48693 4.5728C3.50957 4.58412 3.52927 4.60056 3.54446 4.62081L4.56356 6.25138C4.5782 6.27459 4.58632 6.30131 4.58707 6.32873C4.58782 6.35616 4.58117 6.38328 4.56783 6.40725C4.55449 6.43123 4.53494 6.45117 4.51124 6.46498C4.48754 6.4788 4.46055 6.48598 4.43312 6.48578H2.3949C2.36747 6.48598 2.34048 6.4788 2.31678 6.46498C2.29308 6.45117 2.27353 6.43123 2.26019 6.40725C2.24685 6.38328 2.24021 6.35616 2.24096 6.32873C2.24171 6.30131 2.24982 6.27459 2.26446 6.25138Z" fill="#A449EB"/>
<path d="M5.28089 7.46777H1.54688V14.7829H5.28089V7.46777Z" fill="#A449EB"/>
<path d="M7.13281 14.7854H8.37409V7.31533C8.37409 7.27479 8.39019 7.23591 8.41886 7.20724C8.44753 7.17857 8.48641 7.16247 8.52695 7.16247H12.5667C12.6072 7.16247 12.6461 7.17857 12.6748 7.20724C12.7035 7.23591 12.7196 7.27479 12.7196 7.31533V14.7854H13.9608V2.18311H7.13281V14.7854ZM10.5468 2.61317C10.6915 2.61317 10.833 2.65608 10.9533 2.73649C11.0737 2.81689 11.1675 2.93117 11.2228 3.06487C11.2782 3.19858 11.2927 3.3457 11.2645 3.48764C11.2362 3.62958 11.1666 3.75996 11.0642 3.86229C10.9619 3.96463 10.8315 4.03431 10.6896 4.06255C10.5476 4.09078 10.4005 4.07629 10.2668 4.02091C10.1331 3.96553 10.0188 3.87174 9.93842 3.75141C9.85802 3.63108 9.8151 3.48961 9.8151 3.34489C9.8151 3.15082 9.8922 2.96471 10.0294 2.82748C10.1666 2.69026 10.3528 2.61317 10.5468 2.61317ZM9.39319 4.62896C9.40672 4.60512 9.42626 4.58523 9.44986 4.57129C9.47346 4.55734 9.5003 4.54982 9.52772 4.54947H11.5659C11.5934 4.54927 11.6204 4.55645 11.6441 4.57027C11.6678 4.58408 11.6873 4.60403 11.7006 4.628C11.714 4.65197 11.7206 4.67909 11.7199 4.70652C11.7191 4.73394 11.711 4.76066 11.6964 4.78387L10.6773 6.41444C10.6633 6.43632 10.644 6.45433 10.6212 6.4668C10.5984 6.47927 10.5728 6.4858 10.5468 6.4858C10.5208 6.4858 10.4953 6.47927 10.4725 6.4668C10.4497 6.45433 10.4304 6.43632 10.4164 6.41444L9.39727 4.78387C9.38305 4.76068 9.37519 4.73416 9.37447 4.70696C9.37375 4.67977 9.38021 4.65287 9.39319 4.62896Z" fill="#A449EB"/>
<path d="M12.4137 7.46777H8.67969V14.7829H12.4137V7.46777Z" fill="#A449EB"/>
<path d="M3.41387 4.9917L2.66992 6.17998H4.15782L3.41387 4.9917Z" fill="#A449EB"/>
<path d="M3.41427 3.77092C3.64953 3.77092 3.84026 3.5802 3.84026 3.34493C3.84026 3.10967 3.64953 2.91895 3.41427 2.91895C3.179 2.91895 2.98828 3.10967 2.98828 3.34493C2.98828 3.5802 3.179 3.77092 3.41427 3.77092Z" fill="#A449EB"/>
<path d="M11.2906 4.85498H9.80273L10.5467 6.0453L11.2906 4.85498Z" fill="#A449EB"/>
<path d="M10.5471 3.77092C10.7823 3.77092 10.9731 3.5802 10.9731 3.34493C10.9731 3.10967 10.7823 2.91895 10.5471 2.91895C10.3118 2.91895 10.1211 3.10967 10.1211 3.34493C10.1211 3.5802 10.3118 3.77092 10.5471 3.77092Z" fill="#A449EB"/>
</svg>
