<svg width="20" height="18" viewBox="0 0 20 18" fill="none" xmlns="http://www.w3.org/2000/svg">
<path fill-rule="evenodd" clip-rule="evenodd" d="M10.588 7.50577V11.322H9.41208V7.50577C9.59914 7.55452 9.79673 7.58103 9.99962 7.58103C10.2034 7.58103 10.401 7.55537 10.588 7.50577ZM0.243264 18H19.7567C19.8902 18 20 17.8939 20 17.7631V16.6991C20 16.5691 19.8911 16.4622 19.7567 16.4622L0.243264 16.4631C0.109772 16.4631 0 16.5691 0 16.7V17.764C0.000878402 17.894 0.109779 18 0.243264 18ZM4.20675 0.0923692C4.33322 -0.0307897 4.53786 -0.0307897 4.66432 0.0923692C4.79079 0.215528 4.79079 0.414815 4.66432 0.537974C3.29251 1.87391 2.60663 3.62472 2.60663 5.37631C2.60663 7.12705 3.29253 8.87862 4.66432 10.2146C4.79079 10.3378 4.79079 10.5371 4.66432 10.6603C4.53786 10.7834 4.33322 10.7834 4.20675 10.6603C2.70848 9.20116 1.95935 7.28888 1.95935 5.37636C1.95847 3.46397 2.7076 1.55145 4.20675 0.0923692ZM15.3366 0.537974C15.2102 0.414815 15.2102 0.215528 15.3366 0.0923692C15.4631 -0.0307897 15.6677 -0.0307897 15.7942 0.0923692C17.2925 1.55147 18.0416 3.46375 18.0416 5.37627C18.0416 7.28879 17.2925 9.20109 15.7942 10.6602C15.6677 10.7833 15.4631 10.7833 15.3366 10.6602C15.2102 10.537 15.2102 10.3377 15.3366 10.2146C16.7084 8.87862 17.3943 7.12694 17.3943 5.37622C17.3943 3.62548 16.7084 1.874 15.3366 0.537974ZM12.5649 3.23718C12.4385 3.11402 12.4385 2.91473 12.5649 2.79157C12.6914 2.66841 12.8961 2.66841 13.0225 2.79157C13.7558 3.50572 14.1221 4.44052 14.1221 5.37627C14.1221 6.31192 13.7558 7.2476 13.0225 7.96096C12.8961 8.08412 12.6914 8.08412 12.5649 7.96096C12.4385 7.8378 12.4385 7.63852 12.5649 7.51536C13.1718 6.92437 13.4748 6.15034 13.4748 5.37633C13.4748 4.6023 13.1709 3.82817 12.5649 3.23718ZM13.9508 1.88755C14.9397 2.85058 15.4342 4.11383 15.4342 5.37629C15.4342 6.63875 14.9397 7.90187 13.9508 8.86503C13.8243 8.98818 13.8243 9.18747 13.9508 9.31063C14.0773 9.43379 14.2819 9.43379 14.4084 9.31063C15.5237 8.22445 16.0823 6.80038 16.0823 5.37633C16.0823 3.95231 15.5246 2.52824 14.4084 1.44204C14.2819 1.31888 14.0773 1.31888 13.9508 1.44204C13.8243 1.5652 13.8243 1.7644 13.9508 1.88755ZM6.97845 2.79157C7.10492 2.66841 7.30955 2.66841 7.43602 2.79157C7.56248 2.91473 7.56248 3.11402 7.43602 3.23718C6.83004 3.82817 6.52616 4.60219 6.52616 5.3762C6.52616 6.15023 6.82916 6.92424 7.43602 7.51523C7.56248 7.63838 7.56248 7.83767 7.43602 7.96083C7.30955 8.08399 7.10492 8.08399 6.97845 7.96083C6.24513 7.24668 5.87891 6.31188 5.87891 5.37614C5.87891 4.44048 6.24513 3.50493 6.97845 2.79157ZM5.59259 1.44195C4.47724 2.52813 3.91868 3.9522 3.91868 5.37625C3.91868 6.80027 4.47637 8.22434 5.59259 9.31054C5.71906 9.4337 5.92369 9.4337 6.05016 9.31054C6.17662 9.18738 6.17662 8.9881 6.05016 8.86494C5.06128 7.90191 4.56594 6.63866 4.56594 5.3762C4.56594 4.11374 5.06038 2.85062 6.05016 1.88747C6.17662 1.76431 6.17662 1.56502 6.05016 1.44186C5.92369 1.3187 5.71906 1.31879 5.59259 1.44195ZM10.0003 3.80156C10.8935 3.80156 11.6172 4.50632 11.6172 5.37611C11.6172 6.24593 10.8935 6.95067 10.0003 6.95067C9.10804 6.95067 8.38351 6.24591 8.38351 5.37611C8.38351 4.50715 9.10719 3.80156 10.0003 3.80156ZM15.3303 15.8326V13.1428C15.3303 12.4885 14.7806 11.9523 14.1078 11.9523L5.89285 11.9531C5.22099 11.9531 4.67035 12.4885 4.67035 13.1437V15.8326L15.3303 15.8326ZM7.69226 13.1993H12.3082C12.4417 13.1993 12.5515 13.3054 12.5515 13.4362V14.3496C12.5515 14.4796 12.4426 14.5865 12.3082 14.5865L7.69226 14.5857C7.55876 14.5857 7.44899 14.4796 7.44899 14.3488V13.4353C7.44899 13.3053 7.55877 13.1993 7.69226 13.1993Z" fill="#A449EB"/>
</svg>
