<svg width="19" height="18" viewBox="0 0 19 18" fill="none" xmlns="http://www.w3.org/2000/svg">
<path d="M9.33398 0C14.3047 0 18.334 4.0293 18.334 9C18.334 13.9707 14.3047 18 9.33398 18C4.36328 18 0.333984 13.9707 0.333984 9C0.333984 4.0293 4.36328 0 9.33398 0ZM8.49698 5.0229C8.33052 5.02337 8.17101 5.08971 8.0533 5.20742C7.9356 5.32513 7.86926 5.48464 7.86878 5.6511V10.674C7.86878 11.0214 8.14958 11.3022 8.49698 11.3022H13.5199C13.6043 11.3054 13.6885 11.2915 13.7675 11.2614C13.8464 11.2313 13.9185 11.1856 13.9794 11.127C14.0402 11.0684 14.0887 10.9981 14.1217 10.9203C14.1548 10.8426 14.1719 10.7589 14.1719 10.6744C14.1719 10.59 14.1548 10.5063 14.1217 10.4286C14.0887 10.3508 14.0402 10.2805 13.9794 10.2219C13.9185 10.1633 13.8464 10.1176 13.7675 10.0875C13.6885 10.0574 13.6043 10.0435 13.5199 10.0467H9.12428V5.6511C9.12381 5.48479 9.0576 5.32542 8.94008 5.20774C8.82257 5.09005 8.66329 5.02361 8.49698 5.0229Z" fill="#30B0C7"/>
</svg>
