<svg width="24" height="22" viewBox="0 0 24 22" fill="none" xmlns="http://www.w3.org/2000/svg">
<path d="M12.9362 0.848687C12.547 0.112937 11.3365 0.112937 10.9472 0.848687L0.822212 19.9737C0.731411 20.1451 0.686497 20.3372 0.691832 20.5311C0.697166 20.7251 0.752567 20.9143 0.852655 21.0805C0.952742 21.2467 1.09411 21.3842 1.26304 21.4797C1.43196 21.5751 1.62269 21.6252 1.81671 21.6252H22.0667C22.2607 21.6256 22.4515 21.5757 22.6205 21.4804C22.7895 21.3851 22.9309 21.2477 23.031 21.0814C23.131 20.9152 23.1863 20.7259 23.1914 20.532C23.1965 20.338 23.1513 20.1461 23.0601 19.9748L12.9362 0.848687ZM13.0667 18.2502H10.8167V16.0002H13.0667V18.2502ZM10.8167 13.7502V8.12519H13.0667L13.0678 13.7502H10.8167Z" fill="#FF3B30"/>
</svg>
