<svg width="50" height="51" viewBox="0 0 50 51" fill="none" xmlns="http://www.w3.org/2000/svg">
<rect width="50" height="50" rx="25" transform="matrix(1 0 0 -1 0 50.5)" fill="#FF0000"/>
<path d="M16.813 36.5938L25.0007 28.4065L33.1459 36.5514C33.3258 36.7429 33.5425 36.8961 33.7831 37.0018C34.0236 37.1075 34.2831 37.1635 34.5458 37.1665C35.1084 37.1665 35.6479 36.943 36.0457 36.5453C36.4435 36.1475 36.667 35.608 36.667 35.0454C36.6719 34.7854 36.6237 34.5271 36.5252 34.2864C36.4267 34.0456 36.2801 33.8276 36.0943 33.6455L27.843 25.5007L36.0943 17.2498C36.4439 16.9078 36.6489 16.4446 36.667 15.9559C36.667 15.3934 36.4435 14.8539 36.0457 14.4561C35.6479 14.0583 35.1084 13.8348 34.5458 13.8348C34.2755 13.8236 34.0058 13.8688 33.7538 13.9673C33.5019 14.0659 33.2732 14.2158 33.0822 14.4075L25.0007 22.5948L16.8342 14.4287C16.655 14.2436 16.4409 14.0958 16.2042 13.9939C15.9676 13.892 15.7131 13.8379 15.4555 13.8348C14.8929 13.8348 14.3534 14.0583 13.9556 14.4561C13.5578 14.8539 13.3343 15.3934 13.3343 15.9559C13.3294 16.216 13.3776 16.4743 13.4761 16.715C13.5746 16.9557 13.7212 17.1738 13.907 17.3558L22.1583 25.5007L13.907 33.7516C13.5574 34.0936 13.3524 34.5567 13.3343 35.0454C13.3343 35.608 13.5578 36.1475 13.9556 36.5453C14.3534 36.943 14.8929 37.1665 15.4555 37.1665C15.9646 37.1601 16.4524 36.9544 16.813 36.5938Z" fill="white"/>
</svg>
