<svg width="31" height="31" viewBox="0 0 31 31" fill="none" xmlns="http://www.w3.org/2000/svg">
<path d="M3.875 3.875H7.75V7.75H3.875V3.875Z" fill="black"/>
<path d="M11.625 0V11.625H0V0H11.625ZM9.6875 1.9375H1.9375V9.6875H9.6875V1.9375ZM7.75 23.25H3.875V27.125H7.75V23.25Z" fill="black"/>
<path d="M11.625 19.375V31H0V19.375H11.625ZM1.9375 21.3125V29.0625H9.6875V21.3125H1.9375ZM23.25 3.875H27.125V7.75H23.25V3.875Z" fill="black"/>
<path d="M19.375 0V11.625H31V0H19.375ZM29.0625 1.9375V9.6875H21.3125V1.9375H29.0625ZM15.5 1.9375V0H17.4375V3.875H15.5V7.75H13.5625V1.9375H15.5ZM15.5 11.625V7.75H17.4375V11.625H15.5ZM11.625 15.5V13.5625H13.5625V11.625H15.5V15.5H17.4375V13.5625H27.125V15.5H19.375V17.4375H13.5625V15.5H11.625ZM11.625 15.5V17.4375H3.875V15.5H1.9375V17.4375H0V13.5625H5.8125V15.5H11.625ZM31 17.4375H29.0625V13.5625H31V17.4375ZM29.0625 17.4375H27.125V21.3125H31V19.375H29.0625V17.4375ZM21.3125 17.4375H25.1875V19.375H23.25V21.3125H21.3125V17.4375ZM25.1875 23.25V21.3125H23.25V23.25H21.3125V25.1875H17.4375V27.125H23.25V23.25H25.1875ZM25.1875 23.25H31V25.1875H27.125V27.125H25.1875V23.25ZM17.4375 21.3125V23.25H19.375V19.375H13.5625V21.3125H17.4375Z" fill="black"/>
<path d="M13.5625 23.25H15.5V29.0625H23.25V31H13.5625V23.25ZM31 27.125V31H25.1875V29.0625H29.0625V27.125H31Z" fill="black"/>
</svg>
