<svg width="26" height="20" viewBox="0 0 26 20" fill="none" xmlns="http://www.w3.org/2000/svg">
<path d="M6.10567 1.57491L5.33976 2.34083C4.33247 3.34558 3.53362 4.53944 2.98909 5.85384C2.44455 7.16824 2.16506 8.57726 2.16667 9.99999C2.16478 11.4231 2.44413 12.8325 2.98867 14.1473C3.53321 15.4621 4.33221 16.6563 5.33976 17.6613L6.10567 18.4272L4.57384 19.9591L3.80792 19.1932C2.5993 17.9871 1.64075 16.5543 0.987291 14.9769C0.333827 13.3994 -0.00168642 11.7085 6.37376e-06 10.0011C6.37376e-06 6.41091 1.45601 3.15983 3.80792 0.807909L4.57384 0.0419922L6.10567 1.57491ZM21.4251 0.0419922L22.191 0.807909C23.4 2.01398 24.3588 3.44696 25.0124 5.02458C25.6661 6.60221 26.0017 8.2934 26 10.0011C26 13.5902 24.544 16.8423 22.1932 19.1932L21.4262 19.9591L19.8943 18.4272L20.6603 17.6613C21.6678 16.6563 22.4668 15.4621 23.0113 14.1473C23.5559 12.8325 23.8352 11.4231 23.8333 9.99999C23.835 8.57701 23.5554 7.16773 23.0106 5.85313C22.4659 4.53854 21.6668 3.34454 20.6592 2.33974L19.8933 1.57383L21.4251 0.0419922ZM9.16934 4.63858L8.40342 5.40449C7.79904 6.00731 7.31974 6.72363 6.99309 7.51228C6.66643 8.30093 6.49886 9.14637 6.50001 9.99999C6.50001 11.7962 7.22584 13.419 8.40342 14.5966L9.16934 15.3625L7.63751 16.8943L6.87159 16.1284C6.06587 15.3243 5.42687 14.369 4.99129 13.3173C4.55571 12.2657 4.33212 11.1383 4.33334 9.99999C4.33334 7.60799 5.30509 5.43916 6.87159 3.87266L7.63751 3.10566L9.16934 4.63858ZM18.3614 3.10566L19.1273 3.87266C19.9331 4.67653 20.5722 5.63162 21.008 6.68311C21.4438 7.73459 21.6676 8.86178 21.6667 9.99999C21.6667 12.3942 20.6949 14.5608 19.1273 16.1284L18.3614 16.8943L16.8296 15.3625L17.5955 14.5966C18.2002 13.9937 18.6798 13.2773 19.0066 12.4884C19.3335 11.6996 19.5012 10.8539 19.5 9.99999C19.501 9.14629 19.3333 8.30081 19.0064 7.51216C18.6796 6.7235 18.2001 6.00722 17.5955 5.40449L16.8296 4.63858L18.3614 3.10566ZM13 7.83332C12.4254 7.83332 11.8743 8.0616 11.4679 8.46793C11.0616 8.87426 10.8333 9.42535 10.8333 9.99999C10.8333 10.5746 11.0616 11.1257 11.4679 11.5321C11.8743 11.9384 12.4254 12.1667 13 12.1667C13.5746 12.1667 14.1257 11.9384 14.5321 11.5321C14.9384 11.1257 15.1667 10.5746 15.1667 9.99999C15.1667 9.42535 14.9384 8.87426 14.5321 8.46793C14.1257 8.0616 13.5746 7.83332 13 7.83332ZM8.66667 9.99999C8.66688 9.18956 8.89435 8.39543 9.32325 7.70779C9.75215 7.02015 10.3653 6.46657 11.093 6.10992C11.8208 5.75327 12.6339 5.60785 13.4402 5.69017C14.2464 5.7725 15.0134 6.07926 15.6541 6.57563C16.2947 7.072 16.7833 7.73807 17.0644 8.4982C17.3455 9.25833 17.4077 10.0821 17.2441 10.8758C17.0805 11.6696 16.6976 12.4015 16.1389 12.9886C15.5802 13.5756 14.868 13.9942 14.0833 14.1968V19.5106H11.9167V14.1968C10.9863 13.9566 10.1622 13.414 9.57387 12.6543C8.98555 11.8946 8.66643 10.9609 8.66667 9.99999Z" fill="#F12323"/>
</svg>
