<svg width="30" height="35" viewBox="0 0 30 35" fill="none" xmlns="http://www.w3.org/2000/svg">
<path fill-rule="evenodd" clip-rule="evenodd" d="M28.6366 4.79631C28.6366 2.29104 26.6011 0.259277 24.0912 0.259277H5.90936C3.39943 0.259277 1.3639 2.29104 1.3639 4.79631V5.93057C1.3639 6.55727 1.87241 7.06483 2.50027 7.06483H3.63663V15.0046C1.75452 15.0046 0.227539 16.5288 0.227539 18.4074C0.227539 19.4169 0.667866 20.3229 1.36674 20.9468C1.43634 23.9242 2.65794 26.6195 4.6011 28.6045L4.26162 30.1613C3.79998 32.2824 5.41787 34.2871 7.5926 34.2871H22.4079C24.5826 34.2871 26.2006 32.2823 25.7389 30.1613L25.3994 28.6045C27.3426 26.6196 28.5641 23.9241 28.6337 20.9468C29.3326 20.3229 29.7729 19.4169 29.7729 18.4074C29.7729 16.5288 28.2459 15.0046 26.3638 15.0046V7.06483H27.5002C28.1281 7.06483 28.6366 6.55727 28.6366 5.93057L28.6366 4.79631ZM26.2943 21.8102H3.7063C3.98187 24.0121 5.04579 25.9672 6.61114 27.3893C6.91086 27.6615 7.04296 28.0727 6.95631 28.4683L6.48187 30.6432C6.32846 31.3507 6.86824 32.0185 7.59267 32.0185H22.4079C23.1324 32.0185 23.6722 31.3508 23.5187 30.6432L23.0443 28.4683C22.9577 28.0727 23.0898 27.6615 23.3895 27.3893C24.9548 25.9672 26.0187 24.012 26.2943 21.8102ZM26.3667 19.5417C26.9932 19.5403 27.5003 19.0327 27.5003 18.4074C27.5003 17.7807 26.9918 17.2732 26.3639 17.2732H3.63664C3.00878 17.2732 2.50027 17.7807 2.50027 18.4074C2.50027 19.0341 3.00878 19.5417 3.63664 19.5417H26.3667ZM3.63656 4.79631C3.63656 3.54297 4.65362 2.5278 5.90929 2.5278H24.0911C25.3468 2.5278 26.3638 3.54297 26.3638 4.79631H3.63656ZM5.90929 15.0046V7.06483H24.0911V15.0046H5.90929Z" fill="white"/>
</svg>
