<svg width="99" height="45" viewBox="0 0 99 45" fill="none" xmlns="http://www.w3.org/2000/svg">
<g filter="url(#filter0_d_1070_378)">
<path d="M3.18287 20.8376C3.18287 29.371 1.33303 42.0463 3.68346 44.0509C2.26565 44.2842 0.570264 39.6464 0.17177 35.6639C-0.21476 31.8009 0.171848 22.8741 0.17187 20.8376C0.17191 16.9691 0.993824 14.7346 8.75026 10.0209C17.9921 4.40449 24.4157 -0.515996 38.7758 0.0434858C50.2638 0.491071 55.5621 5.6756 58.3596 8.81492C56.5879 7.22973 53.9937 4.7991 45.1166 2.93417C34.0202 0.602992 27.3064 3.86663 20.5926 7.59651C15.2216 10.5804 10.9327 15.172 9.73964 16.5228L6.69883 16.6415C4.16251 17.3128 3.18287 18.7397 3.18287 20.8376Z" fill="#A449EB"/>
<path d="M18.4487 13.6582H23.2976V43.6837H18.4487V28.671V21.1646V16.5489L9.74023 16.5228L10.2908 15.9723L12.7932 13.6582H18.4487Z" fill="#A449EB"/>
<path d="M5.37402 32.121L9.70068 26.1376M9.70068 26.1376L8.61902 40.2801M9.70068 26.1376H11.864M9.70068 26.1376V32.121H11.864V26.1376M16.1907 32.121L11.864 26.1376M11.864 26.1376L12.9457 40.2801M10.7823 22.874C11.0692 22.874 11.3443 22.7594 11.5472 22.5554C11.75 22.3514 11.864 22.0746 11.864 21.7861C11.864 21.4976 11.75 21.2209 11.5472 21.0169C11.3443 20.8129 11.0692 20.6982 10.7823 20.6982C10.4955 20.6982 10.2203 20.8129 10.0175 21.0169C9.81464 21.2209 9.70068 21.4976 9.70068 21.7861C9.70068 22.0746 9.81464 22.3514 10.0175 22.5554C10.2203 22.7594 10.4955 22.874 10.7823 22.874Z" stroke="black" stroke-width="2.42247" stroke-linecap="round" stroke-linejoin="round"/>
<circle cx="11.0113" cy="22.022" r="1.10112" fill="black"/>
<path d="M25.9428 16.5447H30.9529C32.2478 16.5447 33.2704 16.8736 34.0206 17.5313C34.7709 18.1788 35.146 19.1191 35.146 20.3524C35.146 21.154 34.9764 21.8375 34.6373 22.4027C34.3084 22.9679 33.8357 23.3996 33.219 23.6976L35.0227 27.3203H31.7545L30.1821 24.1601H29.1339V27.3203H25.9428V16.5447ZM30.3209 21.6319C30.8142 21.6319 31.1944 21.5394 31.4616 21.3544C31.7391 21.1592 31.8779 20.8252 31.8779 20.3524C31.8779 19.8797 31.7391 19.5508 31.4616 19.3658C31.1944 19.1705 30.8142 19.0729 30.3209 19.0729H29.1339V21.6319H30.3209ZM40.4987 27.5515C39.0086 27.5515 37.8472 27.2124 37.0148 26.5341C36.1823 25.8558 35.7661 24.8949 35.7661 23.6514C35.7661 22.4284 36.1412 21.4623 36.8915 20.7532C37.6417 20.0441 38.7208 19.6895 40.1288 19.6895C41.0332 19.6895 41.8039 19.8591 42.4411 20.1982C43.0886 20.5271 43.5768 20.9844 43.9056 21.5702C44.2345 22.156 44.3989 22.8138 44.3989 23.5435V24.5455H38.6951C38.9418 25.2032 39.6868 25.5321 40.9304 25.5321C41.4237 25.5321 41.9273 25.4961 42.4411 25.4242C42.9653 25.342 43.4072 25.2289 43.7669 25.085V27.012C43.3763 27.1764 42.8882 27.3049 42.3024 27.3974C41.7166 27.5002 41.1154 27.5515 40.4987 27.5515ZM41.4853 22.7573C41.434 22.4284 41.2901 22.1766 41.0537 22.0019C40.8173 21.8169 40.4936 21.7244 40.0825 21.7244C39.6714 21.7244 39.3477 21.8169 39.1113 22.0019C38.8852 22.1869 38.7465 22.4387 38.6951 22.7573H41.4853ZM48.6476 27.5515C48.031 27.5515 47.3836 27.495 46.7053 27.382C46.0372 27.2689 45.508 27.1045 45.1174 26.8887V24.7151C45.5388 24.9617 46.0527 25.1724 46.659 25.3471C47.2756 25.5115 47.8306 25.5938 48.3239 25.5938C48.6219 25.5938 48.8378 25.5783 48.9714 25.5475C49.105 25.5064 49.1718 25.4293 49.1718 25.3163C49.1718 25.2135 49.105 25.1364 48.9714 25.085C48.848 25.0336 48.6117 24.9617 48.2622 24.8692L47.5531 24.6688C46.9262 24.4838 46.4278 24.2886 46.0578 24.083C45.6981 23.8672 45.4309 23.6103 45.2562 23.3122C45.0917 23.0039 45.0095 22.6185 45.0095 22.156C45.0095 21.3236 45.3384 20.707 45.9961 20.3062C46.6539 19.8951 47.5531 19.6895 48.6939 19.6895C49.2386 19.6895 49.8244 19.7512 50.4513 19.8745C51.0885 19.9876 51.5612 20.1417 51.8695 20.337V22.4798C51.5509 22.2742 51.1244 22.0995 50.59 21.9556C50.0556 21.8015 49.5674 21.7244 49.1255 21.7244C48.5192 21.7244 48.216 21.8272 48.216 22.0327C48.216 22.1252 48.2879 22.2023 48.4318 22.264C48.586 22.3256 48.848 22.3976 49.218 22.4798L49.8655 22.6339C50.5335 22.8086 51.0474 23.009 51.4071 23.2351C51.7668 23.4612 52.0185 23.7284 52.1624 24.0368C52.3063 24.3348 52.3782 24.7099 52.3782 25.1621C52.3782 25.8918 52.0545 26.4724 51.4071 26.9041C50.7699 27.3357 49.8501 27.5515 48.6476 27.5515ZM56.3853 27.5515C55.4295 27.5515 54.7049 27.2843 54.2116 26.7499C53.7183 26.2155 53.4717 25.491 53.4717 24.5763V22.0019H52.4542V19.9208H53.4717V17.7009H56.5702V19.9208H58.2197V22.0019H56.5702V24.1293C56.5702 24.4992 56.637 24.7664 56.7706 24.9309C56.9145 25.085 57.1509 25.1621 57.4798 25.1621C57.8497 25.1621 58.2043 25.0645 58.5435 24.8692V27.1507C58.2454 27.2843 57.932 27.382 57.6031 27.4436C57.2845 27.5156 56.8786 27.5515 56.3853 27.5515ZM59.1529 19.9208H62.1281V20.7224C62.4159 20.4243 62.8115 20.188 63.3151 20.0133C63.829 19.8385 64.3891 19.7512 64.9954 19.7512V22.1406C64.348 22.1406 63.7724 22.228 63.2689 22.4027C62.7653 22.5774 62.421 22.8343 62.236 23.1735V27.3203H59.1529V19.9208ZM69.748 27.5515C68.8025 27.5515 67.9752 27.3871 67.2661 27.0582C66.5673 26.7191 66.0277 26.2515 65.6475 25.6554C65.2672 25.0593 65.0771 24.381 65.0771 23.6205C65.0771 22.8703 65.2672 22.1972 65.6475 21.6011C66.0277 21.005 66.5673 20.5374 67.2661 20.1982C67.9752 19.8591 68.8025 19.6895 69.748 19.6895C70.6935 19.6895 71.5209 19.8591 72.23 20.1982C72.9391 20.5374 73.4838 21.005 73.864 21.6011C74.2443 22.1972 74.4344 22.8703 74.4344 23.6205C74.4344 24.381 74.2443 25.0593 73.864 25.6554C73.4838 26.2515 72.9391 26.7191 72.23 27.0582C71.5209 27.3871 70.6935 27.5515 69.748 27.5515ZM69.748 25.1621C70.2105 25.1621 70.5805 25.0234 70.858 24.7459C71.1355 24.4684 71.2742 24.0933 71.2742 23.6205C71.2742 23.1478 71.1355 22.7778 70.858 22.5106C70.5805 22.2331 70.2105 22.0944 69.748 22.0944C69.2856 22.0944 68.9156 22.2331 68.6381 22.5106C68.3709 22.7778 68.2373 23.1478 68.2373 23.6205C68.2373 24.0933 68.3709 24.4684 68.6381 24.7459C68.9156 25.0234 69.2856 25.1621 69.748 25.1621ZM79.3377 27.5515C78.3922 27.5515 77.5649 27.3871 76.8558 27.0582C76.1569 26.7191 75.6174 26.2515 75.2371 25.6554C74.8569 25.0593 74.6667 24.381 74.6667 23.6205C74.6667 22.8703 74.8569 22.1972 75.2371 21.6011C75.6174 21.005 76.1569 20.5374 76.8558 20.1982C77.5649 19.8591 78.3922 19.6895 79.3377 19.6895C80.2832 19.6895 81.1105 19.8591 81.8196 20.1982C82.5288 20.5374 83.0735 21.005 83.4537 21.6011C83.834 22.1972 84.0241 22.8703 84.0241 23.6205C84.0241 24.381 83.834 25.0593 83.4537 25.6554C83.0735 26.2515 82.5288 26.7191 81.8196 27.0582C81.1105 27.3871 80.2832 27.5515 79.3377 27.5515ZM79.3377 25.1621C79.8002 25.1621 80.1702 25.0234 80.4476 24.7459C80.7251 24.4684 80.8639 24.0933 80.8639 23.6205C80.8639 23.1478 80.7251 22.7778 80.4476 22.5106C80.1702 22.2331 79.8002 22.0944 79.3377 22.0944C78.8752 22.0944 78.5053 22.2331 78.2278 22.5106C77.9606 22.7778 77.827 23.1478 77.827 23.6205C77.827 24.0933 77.9606 24.4684 78.2278 24.7459C78.5053 25.0234 78.8752 25.1621 79.3377 25.1621ZM84.9561 19.9208H87.8081V20.6299C88.0958 20.3318 88.4298 20.1006 88.8101 19.9362C89.2006 19.7717 89.622 19.6895 90.0742 19.6895C90.6189 19.6895 91.0505 19.7666 91.3691 19.9208C91.698 20.0646 91.9754 20.2907 92.2015 20.5991C92.5098 20.3113 92.8747 20.0903 93.2961 19.9362C93.7277 19.7717 94.1645 19.6895 94.6064 19.6895C95.6033 19.6895 96.3073 19.9465 96.7183 20.4603C97.1397 20.9639 97.3504 21.6987 97.3504 22.6648V27.3203H94.406V23.1118C94.406 22.7521 94.3392 22.4952 94.2056 22.341C94.0823 22.1766 93.8664 22.0944 93.5581 22.0944C93.2087 22.0944 92.9261 22.2023 92.7103 22.4181V27.3203H89.7658V22.9731C89.7658 22.6648 89.7093 22.4438 89.5963 22.3102C89.4832 22.1663 89.288 22.0944 89.0105 22.0944C88.5686 22.0944 88.2037 22.3359 87.916 22.8189V27.3203H84.9561V19.9208Z" fill="#A449EB"/>
<path d="M26.0419 30.3061H27.165L29.9068 36.3072L32.6486 30.3061H33.7718V38.0029H32.6817V32.5303L30.1821 38.0029H29.6316L27.121 32.5303V38.0029H26.0419V30.3061ZM37.4279 38.1681C36.7892 38.1681 36.2754 38.0066 35.8863 37.6836C35.5046 37.3533 35.3137 36.9091 35.3137 36.3512C35.3137 35.764 35.4972 35.3125 35.8643 34.9969C36.2387 34.6739 36.7672 34.5124 37.4499 34.5124C38.1766 34.5124 38.7933 34.6592 39.2998 34.9528V34.6775C39.2998 34.2591 39.1713 33.9508 38.9144 33.7526C38.6648 33.547 38.2684 33.4443 37.7252 33.4443C37.4022 33.4443 37.0865 33.4773 36.7782 33.5434C36.4772 33.6021 36.2056 33.6865 35.9634 33.7966V32.8937C36.1836 32.7909 36.4699 32.7102 36.8222 32.6515C37.1746 32.5854 37.516 32.5524 37.8463 32.5524C38.7199 32.5524 39.3658 32.7469 39.7843 33.136C40.21 33.5177 40.4229 34.0499 40.4229 34.7326V38.0029H39.3769V37.4083C39.1493 37.6579 38.8777 37.8488 38.562 37.9809C38.2537 38.1057 37.8757 38.1681 37.4279 38.1681ZM37.7031 37.3202C38.0555 37.3202 38.3748 37.2505 38.6611 37.111C38.9474 36.9715 39.1603 36.777 39.2998 36.5274V35.8117C38.8226 35.5034 38.2904 35.3492 37.7031 35.3492C37.2774 35.3492 36.9581 35.4336 36.7452 35.6025C36.5396 35.764 36.4369 36.0136 36.4369 36.3512C36.4369 36.9972 36.859 37.3202 37.7031 37.3202ZM42.1334 32.7175H43.2125V33.4773C43.4621 33.1617 43.7667 32.9304 44.1264 32.7836C44.4934 32.6294 44.8752 32.5524 45.2716 32.5524C45.9763 32.5524 46.5012 32.7396 46.8462 33.1139C47.1912 33.4883 47.3637 33.9912 47.3637 34.6225V38.0029H46.2516V34.7326C46.2516 33.8737 45.8405 33.4443 45.0183 33.4443C44.6659 33.4443 44.3356 33.5287 44.0273 33.6975C43.7263 33.859 43.4657 34.1086 43.2455 34.4463V38.0029H42.1334V32.7175ZM50.7988 38.1681C50.1601 38.1681 49.6463 38.0066 49.2572 37.6836C48.8755 37.3533 48.6846 36.9091 48.6846 36.3512C48.6846 35.764 48.8681 35.3125 49.2352 34.9969C49.6096 34.6739 50.1381 34.5124 50.8208 34.5124C51.5475 34.5124 52.1642 34.6592 52.6707 34.9528V34.6775C52.6707 34.2591 52.5422 33.9508 52.2853 33.7526C52.0357 33.547 51.6393 33.4443 51.0961 33.4443C50.7731 33.4443 50.4574 33.4773 50.1491 33.5434C49.8481 33.6021 49.5765 33.6865 49.3343 33.7966V32.8937C49.5545 32.7909 49.8408 32.7102 50.1932 32.6515C50.5455 32.5854 50.8869 32.5524 51.2172 32.5524C52.0908 32.5524 52.7368 32.7469 53.1552 33.136C53.5809 33.5177 53.7938 34.0499 53.7938 34.7326V38.0029H52.7478V37.4083C52.5202 37.6579 52.2486 37.8488 51.9329 37.9809C51.6246 38.1057 51.2466 38.1681 50.7988 38.1681ZM51.0741 37.3202C51.4264 37.3202 51.7457 37.2505 52.032 37.111C52.3183 36.9715 52.5312 36.777 52.6707 36.5274V35.8117C52.1935 35.5034 51.6613 35.3492 51.0741 35.3492C50.6483 35.3492 50.329 35.4336 50.1161 35.6025C49.9105 35.764 49.8078 36.0136 49.8078 36.3512C49.8078 36.9972 50.2299 37.3202 51.0741 37.3202ZM58.2681 40.5355C57.9084 40.5355 57.556 40.5062 57.211 40.4474C56.8733 40.3887 56.587 40.3043 56.3521 40.1942V39.2802C56.9027 39.5298 57.5414 39.6546 58.2681 39.6546C58.9508 39.6546 59.4463 39.5041 59.7546 39.2032C60.0703 38.9095 60.2281 38.4617 60.2281 37.8598V37.2982C59.7436 37.8781 59.0315 38.1681 58.0919 38.1681C57.556 38.1681 57.0752 38.0506 56.6494 37.8157C56.2237 37.5808 55.8897 37.2505 55.6474 36.8247C55.4052 36.399 55.284 35.9108 55.284 35.3602C55.284 34.8023 55.4015 34.3142 55.6364 33.8957C55.8787 33.47 56.209 33.1396 56.6274 32.9047C57.0532 32.6698 57.5303 32.5524 58.0589 32.5524C58.5507 32.5524 58.9655 32.6258 59.3031 32.7726C59.6482 32.9121 59.9675 33.147 60.2611 33.4773V32.7175H61.3402V37.7387C61.3402 38.6416 61.087 39.3316 60.5805 39.8088C60.0813 40.2933 59.3105 40.5355 58.2681 40.5355ZM58.3121 37.2872C58.7673 37.2872 59.1673 37.1661 59.5124 36.9238C59.8647 36.6816 60.1033 36.3586 60.2281 35.9548V34.7656C60.0886 34.3545 59.8464 34.0315 59.5014 33.7966C59.1637 33.5617 58.7673 33.4443 58.3121 33.4443C57.9524 33.4443 57.6258 33.525 57.3321 33.6865C57.0458 33.8407 56.8183 34.0646 56.6494 34.3582C56.4879 34.6518 56.4072 34.9859 56.4072 35.3602C56.4072 35.742 56.4879 36.0796 56.6494 36.3733C56.8183 36.6596 57.0458 36.8835 57.3321 37.045C57.6258 37.2065 57.9524 37.2872 58.3121 37.2872ZM66.0107 38.1681C65.0344 38.1681 64.2673 37.9259 63.7094 37.4414C63.1588 36.9495 62.8835 36.2595 62.8835 35.3712C62.8835 34.505 63.1294 33.8187 63.6213 33.3121C64.1205 32.8056 64.8288 32.5524 65.7464 32.5524C66.3557 32.5524 66.8733 32.6698 67.299 32.9047C67.7248 33.1323 68.0441 33.4516 68.257 33.8627C68.4772 34.2665 68.5873 34.7289 68.5873 35.2501V35.8007H63.9406C63.9773 36.2999 64.1865 36.6742 64.5682 36.9238C64.9573 37.1661 65.4822 37.2872 66.1428 37.2872C66.4805 37.2872 66.8219 37.2578 67.1669 37.1991C67.5119 37.133 67.8166 37.0486 68.0808 36.9459V37.8378C67.8459 37.9332 67.5339 38.0103 67.1449 38.069C66.7631 38.1351 66.3851 38.1681 66.0107 38.1681ZM67.5413 35.0189C67.5266 34.5197 67.3614 34.1343 67.0458 33.8627C66.7375 33.5838 66.297 33.4443 65.7244 33.4443C65.1665 33.4443 64.7334 33.5874 64.4251 33.8737C64.1168 34.16 63.9553 34.5417 63.9406 35.0189H67.5413ZM70.1333 32.7175H71.1904V33.4773C71.44 33.169 71.7226 32.9378 72.0382 32.7836C72.3539 32.6294 72.6806 32.5524 73.0182 32.5524C73.444 32.5524 73.7817 32.6258 74.0313 32.7726C74.2809 32.9121 74.4644 33.1286 74.5818 33.4223C74.8167 33.136 75.103 32.9194 75.4407 32.7726C75.7857 32.6258 76.1308 32.5524 76.4758 32.5524C77.1218 32.5524 77.5879 32.7175 77.8742 33.0479C78.1605 33.3709 78.3036 33.8517 78.3036 34.4903V38.0029H77.2245V34.6335C77.2245 34.2004 77.1438 33.8957 76.9823 33.7196C76.8208 33.536 76.5455 33.4443 76.1564 33.4443C75.5985 33.4443 75.1434 33.6865 74.7911 34.171C74.8057 34.2811 74.8131 34.461 74.8131 34.7106V38.0029H73.734V34.6335C73.734 34.2004 73.6606 33.8957 73.5138 33.7196C73.3669 33.536 73.1027 33.4443 72.7209 33.4443C72.163 33.4443 71.6639 33.7599 71.2234 34.3912V38.0029H70.1333V32.7175ZM82.9194 38.1681C81.9431 38.1681 81.176 37.9259 80.6181 37.4414C80.0675 36.9495 79.7922 36.2595 79.7922 35.3712C79.7922 34.505 80.0381 33.8187 80.53 33.3121C81.0291 32.8056 81.7375 32.5524 82.6551 32.5524C83.2644 32.5524 83.782 32.6698 84.2077 32.9047C84.6335 33.1323 84.9528 33.4516 85.1657 33.8627C85.3859 34.2665 85.496 34.7289 85.496 35.2501V35.8007H80.8493C80.886 36.2999 81.0952 36.6742 81.4769 36.9238C81.866 37.1661 82.3909 37.2872 83.0515 37.2872C83.3892 37.2872 83.7306 37.2578 84.0756 37.1991C84.4206 37.133 84.7253 37.0486 84.9895 36.9459V37.8378C84.7546 37.9332 84.4426 38.0103 84.0536 38.069C83.6718 38.1351 83.2938 38.1681 82.9194 38.1681ZM84.45 35.0189C84.4353 34.5197 84.2701 34.1343 83.9545 33.8627C83.6462 33.5838 83.2057 33.4443 82.6331 33.4443C82.0752 33.4443 81.6421 33.5874 81.3338 33.8737C81.0255 34.16 80.864 34.5417 80.8493 35.0189H84.45ZM87.042 32.7175H88.1211V33.4773C88.3707 33.1617 88.6753 32.9304 89.035 32.7836C89.4021 32.6294 89.7838 32.5524 90.1802 32.5524C90.8849 32.5524 91.4098 32.7396 91.7548 33.1139C92.0998 33.4883 92.2723 33.9912 92.2723 34.6225V38.0029H91.1602V34.7326C91.1602 33.8737 90.7491 33.4443 89.9269 33.4443C89.5746 33.4443 89.2442 33.5287 88.9359 33.6975C88.635 33.859 88.3744 34.1086 88.1541 34.4463V38.0029H87.042V32.7175ZM96.0119 38.1681C95.476 38.1681 95.0612 38.0139 94.7676 37.7056C94.4813 37.3973 94.3381 36.9605 94.3381 36.3953V33.5764H93.5343V32.7175H94.3381V31.1319H95.4613V32.7175H96.7606V33.5764H95.4613V36.3182C95.4613 36.6706 95.5274 36.9202 95.6595 37.067C95.799 37.2138 96.0486 37.2872 96.4083 37.2872C96.6211 37.2872 96.834 37.2395 97.0469 37.1441V38.025C96.768 38.1204 96.4229 38.1681 96.0119 38.1681Z" fill="black"/>
</g>
<defs>
<filter id="filter0_d_1070_378" x="0" y="0" width="97.3506" height="44.0596" filterUnits="userSpaceOnUse" color-interpolation-filters="sRGB">
<feFlood flood-opacity="0" result="BackgroundImageFix"/>
<feColorMatrix in="SourceAlpha" type="matrix" values="0 0 0 0 0 0 0 0 0 0 0 0 0 0 0 0 0 0 127 0" result="hardAlpha"/>
<feOffset/>
<feComposite in2="hardAlpha" operator="out"/>
<feColorMatrix type="matrix" values="0 0 0 0 0 0 0 0 0 0 0 0 0 0 0 0 0 0 0.8 0"/>
<feBlend mode="normal" in2="BackgroundImageFix" result="effect1_dropShadow_1070_378"/>
<feBlend mode="normal" in="SourceGraphic" in2="effect1_dropShadow_1070_378" result="shape"/>
</filter>
</defs>
</svg>
